<?xml version="1.0" encoding="utf-8"?>
<!-- Generator: Adobe Illustrator 17.0.0, SVG Export Plug-In . SVG Version: 6.00 Build 0)  -->
<!DOCTYPE svg PUBLIC "-//W3C//DTD SVG 1.1//EN" "http://www.w3.org/Graphics/SVG/1.1/DTD/svg11.dtd">
<svg version="1.1" id="Layer_1" xmlns="http://www.w3.org/2000/svg" xmlns:xlink="http://www.w3.org/1999/xlink" x="0px" y="0px"
	 width="837.341px" height="305.663px" viewBox="0 0 837.341 305.663" enable-background="new 0 0 837.341 305.663"
	 xml:space="preserve">
<g>
	<path fill="none" stroke="#CD2027" stroke-width="10" stroke-miterlimit="10" d="M118.977,100.477c0.144,0,0.288,0,0.349,0l0,0
		c7.111,0.021,12.845,5.796,12.845,12.907c0,0.267,0,0.534-0.021,0.802c0,0.021,0,0.041,0,0.062
		c0.041,1.316,0.021,2.672,0.021,4.049v0.411v24.868v32.616h56.95V115.83c-0.432-15.435-12.455-23.984-31.486-28.054h-0.021
		c2.035-0.082,3.864-0.062,5.672-0.288c14.078-1.706,22.916-17.408,22.916-36.521c0-19.134-11.242-35.699-26.821-36.973
		c-14.202-1.727-24.046-1.254-38.268-1.254l0,0h-14.757h-9.022H44.64v163.452h61.718v-32.616v-30.191v-8.468v-2.22v-2.199v-0.021
		H118.977z M132.172,49.652v0.041c0,0.267,0,0.514-0.021,0.76c0,0.021,0,0.041,0,0.062c0.021,0.473,0.021,0.946,0.021,1.439v2.281
		v1.069v0.39v0.329v2.302c0,0.473,0,0.966-0.021,1.439c0,0.021,0,0.021,0,0.041c0.021,0.267,0.021,0.514,0.021,0.76v0.041
		c0,7.111-5.734,12.886-12.845,12.928l0,0c-0.062,0-0.205,0-0.349,0h-12.619v-0.041v-2.199v-2.199v-8.488V49.652v-8.468v-2.22
		v-2.199v-0.021h12.619c0.144,0,0.288,0,0.349,0l0,0C126.438,36.765,132.172,42.54,132.172,49.652L132.172,49.652z"/>
	<path fill-rule="evenodd" clip-rule="evenodd" fill="#CD2027" d="M633.195,114.37c0.822-0.575-42.502,37.59-60.136,54.176
		c-0.719,0.658-3.782,1.808-7.379,1.521c-3.309-0.268-6.967-0.781-10.276-1.562c-4.296-1.049-7.461-1.789-8.55,1.398
		c-0.678,2.055-0.555,5.446,1.603,6.104c3.987,1.233,9.166,1.767,13.728,1.932c7.399,0.287,8.447-1.911,13.997-7.008
		c1.11-1.007,2.302-2.076,3.596-3.206c4.46-3.966,9.721-9.248,15.414-14.346c13.997-12.454,30.11-26.142,39.625-33.891
		c1.541-1.274,3.268,0,5.015-0.39c3.288-0.699,6.227-2.98,6.474-3.124c1.788-1.13,4.48-1.295,5.303-4.131
		c0.658-2.322-0.37-6.474,0.658-8.221c2.548-4.439,7.07-5.693,10.893-8.344c1.068,1.973,1.48,4.069,1.5,5.878
		c0.164,10.667,2.446,15.846,6.35,20.819c1.932,2.487,4.378,5.981,6.988,7.974c1.727,1.336,5.2,0,6.906,1.706
		c1.172,1.171,1.418,4.604,2.652,5.693c6.371,5.549,14.859,7.461,22.176,12.496c2.198,1.521,3.946,4.152,6.289,5.549
		c1.048,0.658,2.795,0.986,4.295,0.452c1.912-0.699,3.083-1.13,4.46-0.37c0.925,0.534,2.261,1.541,2.508,2.878
		c0.349,1.829-0.124,3.309,1.027,4.727c0.452,0.575,1.048,0.925,1.767,1.151c0.781,0.247,7.892,0.925,8.776,0.884
		c3.473-0.226,5.467-2.507,7.398-4.213c1.233-1.069-2.507-2.281-3.802-4.214c-4.315-6.433,2.302-5.467-11.221-14.16
		c-3.001-1.952-6.515-3.494-9.66-5.734c-3.268-2.363-6.556-8.2-11.94-11.612c-3.186-2.035-6.557-3.412-9.455-5.488
		c-1.932-1.377-0.904-4.994-0.843-8.098c0.062-2.631-0.514-5.241,0.719-7.44c0.432-0.76,0.966-1.5,1.562-2.138l0,0l0,0
		c0.144-0.164,0.287-0.308,0.452-0.452l1.356-1.397c2.569-2.59,1.686-2.323,4.953-0.514l3.247,1.829
		c2.611,1.336,4.604,2.466,6.309,3.514l0,0l0,0c4.296,2.631,6.803,4.665,12.661,7.954c2.507,1.418,4.481,4.706,7.275,5.857
		c3.042,1.233,7.317-0.452,10.009,0.534c1.768,0.617,2.898,2.199,4.419,3.597c9.105,8.468,27.047,22.258,35.967,26.266
		c2.754,1.213,4.768,4.851,8.221,6.885c1.459,0.863,7.316,1.5,9.166,1.397c1.274-0.062,2.671,0.227,3.206-0.452
		c0.637-0.781-1.008-2.939-2.055-6.104c-0.329-0.987-0.246-2.363-0.308-3.289c-0.268-3.33-1.5-2.939-3.905-4.008
		c-1.665-0.76-3.124-1.747-4.07-2.59c-1.624-1.418-2.384-3.823-3.288-5.693c-1.192-2.384-2.446-4.275-4.275-6.166
		c-2.897-3.001-6.556-5.446-9.885-8.118c-5.55-4.46-9.023-7.193-14.634-12.002c-3.637-3.124-6.535-1.357-9.31-4.378
		c-2.405-2.487-2.034-6.166-4.151-9.721c-2.302-3.843-7.07-7.584-9.619-10.44c-5.117-5.734-9.782-10.687-16.03-14.14
		c-2.179-1.213-4.008-1.11-4.09-3.658c-0.082-2.055,0.699-4.583,0.185-6.166c-0.637-1.932-3.617-2.076-3.884-4.069
		c-0.575-4.172,5.878-7.81,6.392-12.167c0.493-4.152,0.246-8.365-4.07-13.256c-5.467-6.269-10.235-6.063-15.167-7.769
		c-4.255-1.48-6.433-2.836-11.736-4.316c-2.014-0.555-3.905-1.603-5.857-1.582c-4.686,0-8.756,1.233-13.277,1.85
		c-4.727,0.657-3.678,0.534-5.014-3.823c-0.287-0.925-0.617-1.85-1.089-2.898c-1.336-3.001-4.954-5.138-6.823-6.125
		c-8.406-4.48-24.026,2.528-24.683,12.578c-0.288,4.624,1.048,4.994,1.747,7.769c0.287,1.13,0.411,2.117,0.411,3.083
		c0,3.33-1.603,3.843-4.049,5.96c-5.22,4.522-7.995,6.597-9.906,12.311c-2.487,7.46-2.774,14.366-1.151,22.196
		c0.554,2.775,1.521,5.631,2.446,8.632c1.726,5.652-1.994,6.453-1.48,10.112c0.37,2.734,1.911,3.885,2.96,6.885
		c0.904,2.549,0.144,6.33,0.781,9.434C630.688,108.719,632.784,111.37,633.195,114.37L633.195,114.37z"/>
	<path fill="#CD2027" d="M0,289.282h18.045v-42.605c6.145,0,6.392,4.336,6.392,10.091v20.737c0,6.268,1.151,9.228,2.446,11.776
		h18.292c-1.028-3.576-2.692-7.296-2.692-16.113v-18.045c0-10.379-2.549-14.736-13.934-15.373v-0.247
		c10.872-0.637,13.934-8.056,13.934-14.839v-8.077c0-13.934-10.112-18.415-21.23-18.415H0V289.282z M18.045,211.224h2.179
		c2.939,0,4.213,1.398,4.213,5.755v13.442c0,4.336-1.274,5.754-4.213,5.754h-2.179V211.224z M48.38,216.075v61.06
		c0,7.666,2.939,13.051,11.386,13.051c4.871,0,9.988-4.11,10.358-9.084h0.267v8.179h16.257v-73.207H70.392v56.95
		c0,1.788-0.76,3.843-2.939,3.843c-2.179,0-2.816-2.056-2.816-3.843v-56.95H48.38z M130.527,241.56v-9.865
		c0-10.995-8.94-16.503-19.566-16.503c-9.988,0-19.463,5.508-19.463,16.503v6.145c0,18.929,22.792,17.408,22.792,30.336v6.145
		c0,1.788-0.781,3.823-3.33,3.823c-2.569,0-3.206-2.035-3.206-3.823v-12.804H91.499v12.147c0,11.016,9.474,16.524,19.463,16.524
		c10.626,0,19.566-5.508,19.566-16.524v-5.878c0-22.525-22.772-19.709-22.772-32.514v-4.214c0-1.788,0.637-3.843,3.206-3.843
		c2.549,0,3.33,2.055,3.33,3.843v10.502H130.527z M174.427,241.56v-9.865c0-10.995-8.961-16.503-19.566-16.503
		c-9.988,0-19.463,5.508-19.463,16.503v6.145c0,18.929,22.772,17.408,22.772,30.336v6.145c0,1.788-0.76,3.823-3.309,3.823
		c-2.569,0-3.206-2.035-3.206-3.823v-12.804h-16.257v12.147c0,11.016,9.475,16.524,19.463,16.524
		c10.605,0,19.566-5.508,19.566-16.524v-5.878c0-22.525-22.772-19.709-22.772-32.514v-4.214c0-1.788,0.637-3.843,3.206-3.843
		c2.548,0,3.309,2.055,3.309,3.843v10.502H174.427z M196.069,289.282v-73.207h-16.257v73.207H196.069z M196.069,211.985v-13.811
		h-16.257v13.811H196.069z M223.444,253.192v21.128c0,1.788-0.76,3.823-2.939,3.823c-2.179,0-2.816-2.035-2.816-3.823v-13.318
		C217.69,257.796,218.08,256.768,223.444,253.192L223.444,253.192z M217.69,241.56v-10.502c0-1.788,0.637-3.843,2.816-3.843
		c2.178,0,2.939,2.055,2.939,3.843v2.939c0,15.867-22.011,8.838-22.011,27.253v15.743c0,8.324,2.692,13.194,10.872,13.194
		c4.747,0,8.714-2.446,10.893-8.323h0.246l0.905,7.419h16.503c-0.637-4.357-1.151-9.721-1.151-14.839v-42.749
		c0-10.995-8.961-16.503-19.196-16.503c-10.358,0-19.073,5.508-19.073,16.503v9.865H217.69z M260.809,216.075h-16.236v73.207h16.236
		v-56.95c0-1.788,0.637-3.843,2.816-3.843c2.179,0,2.96,2.055,2.96,3.843v56.95h16.236v-58.101c0-8.447-0.37-15.99-10.749-15.99
		c-4.336,0-9.968,2.815-10.996,7.296h-0.267V216.075z M329.926,198.173h-18.045v91.109h18.045v-44.146h6.392v44.146h18.045v-91.109
		h-18.045v33.912h-6.392V198.173z M397.995,231.694c0-10.995-8.94-16.503-19.196-16.503c-10.358,0-19.052,5.508-19.052,16.503
		v41.968c0,11.016,8.693,16.524,19.052,16.524c10.256,0,19.196-5.508,19.196-16.524V231.694z M381.759,274.32
		c0,1.788-0.781,3.823-2.96,3.823c-2.158,0-2.816-2.035-2.816-3.823v-43.263c0-1.788,0.658-3.843,2.816-3.843
		c2.179,0,2.96,2.055,2.96,3.843V274.32z M441.134,241.56v-9.865c0-10.995-8.961-16.503-19.196-16.503
		c-10.358,0-19.073,5.508-19.073,16.503v41.968c0,11.016,8.714,16.524,19.073,16.524c10.235,0,19.196-5.508,19.196-16.524v-13.421
		h-16.257v14.079c0,1.788-0.76,3.823-2.939,3.823c-2.179,0-2.816-2.035-2.816-3.823v-43.263c0-1.788,0.637-3.843,2.816-3.843
		c2.179,0,2.939,2.055,2.939,3.843v10.502H441.134z M446.005,198.173v91.109h16.236v-38.515h0.268l6.515,38.515h16.648
		l-7.687-41.721l7.933-31.486h-16.894l-6.515,32.904h-0.268v-50.806H446.005z M527.269,255.248v-23.553
		c0-10.995-8.961-16.503-19.196-16.503c-10.379,0-19.073,5.508-19.073,16.503v41.968c0,11.016,8.693,16.524,19.073,16.524
		c10.235,0,19.196-5.508,19.196-16.524v-13.421h-16.257v14.079c0,1.788-0.781,3.823-2.939,3.823c-2.179,0-2.816-2.035-2.816-3.823
		v-19.073H527.269z M505.257,244.232v-13.175c0-1.788,0.637-3.843,2.816-3.843c2.158,0,2.939,2.055,2.939,3.843v13.175H505.257z
		 M530.578,216.075c10.769,69.364,11.263,72.694,11.263,74.235c0,2.692-1.151,3.329-4.604,3.329h-5.118v12.023h8.201
		c15.99,0,18.292-2.939,20.223-15.62l11.509-73.967h-15.105l-5.364,55.923h-0.268l-4.481-55.923H530.578z M642.69,230.667v-17.922
		c0-12.146-10.749-16.38-21.888-16.38c-11.119,0-21.231,4.481-21.231,16.648v11.386c0,20.984,25.074,17.798,25.074,47.106
		c0,2.548-0.391,6.001-3.206,6.001c-2.816,0-3.823-2.425-3.823-6.145V253.46h-18.045v20.717c0,12.166,10.749,16.894,21.868,16.894
		c11.139,0,21.251-4.48,21.251-16.627v-7.933c0-33.542-25.073-25.095-25.073-50.559c0-2.549,0.37-6.022,3.185-6.022
		c2.815,0,3.843,3.329,3.843,5.898v14.839H642.69z M686.323,241.56v-9.865c0-10.995-8.94-16.503-19.196-16.503
		c-10.358,0-19.052,5.508-19.052,16.503v41.968c0,11.016,8.694,16.524,19.052,16.524c10.255,0,19.196-5.508,19.196-16.524v-13.421
		h-16.236v14.079c0,1.788-0.781,3.823-2.96,3.823c-2.158,0-2.815-2.035-2.815-3.823v-43.263c0-1.788,0.657-3.843,2.815-3.843
		c2.179,0,2.96,2.055,2.96,3.843v10.502H686.323z M691.193,198.173v91.109h16.257v-56.95c0-1.788,0.637-3.843,2.815-3.843
		c2.179,0,2.939,2.055,2.939,3.843v56.95h16.257v-58.101c0-8.447-0.39-15.99-10.749-15.99c-4.357,0-9.988,2.815-10.626,7.296h-0.637
		v-24.314H691.193z M772.581,231.694c0-10.995-8.961-16.503-19.197-16.503c-10.358,0-19.051,5.508-19.051,16.503v41.968
		c0,11.016,8.693,16.524,19.051,16.524c10.235,0,19.197-5.508,19.197-16.524V231.694z M756.344,274.32
		c0,1.788-0.781,3.823-2.96,3.823c-2.157,0-2.815-2.035-2.815-3.823v-43.263c0-1.788,0.658-3.843,2.815-3.843
		c2.179,0,2.96,2.055,2.96,3.843V274.32z M815.72,231.694c0-10.995-8.961-16.503-19.196-16.503
		c-10.379,0-19.073,5.508-19.073,16.503v41.968c0,11.016,8.693,16.524,19.073,16.524c10.235,0,19.196-5.508,19.196-16.524V231.694z
		 M799.464,274.32c0,1.788-0.76,3.823-2.939,3.823c-2.179,0-2.816-2.035-2.816-3.823v-43.263c0-1.788,0.637-3.843,2.816-3.843
		c2.179,0,2.939,2.055,2.939,3.843V274.32z M837.341,198.173h-16.257v91.109h16.257V198.173z"/>
	<path fill="none" stroke="#CD2027" stroke-width="10" stroke-miterlimit="10" d="M402.331,121.687
		c-1.233,5.898-1.624,11.858-1.048,17.696c3.535,35.946,39.152,44.208,70.247,44.208c20.511,0,39.049-3.329,51.052-10.44
		c14.14-8.365,16.627-21.005,17.634-36.563c0.802-12.27-1.192-25.526-9.166-33.11c-22.649-21.58-60.814-26.615-71.872-40.324
		c-4.09-5.097-4.008-12.722-2.795-18.826c0.802-6.453,6.289-11.448,12.947-11.448c7.214,0,13.051,5.857,13.051,13.051
		c0,0.144,0,0.288,0,0.432c0.329,5.056,0,10.379,0.247,12.763h50.188c0.268-2.179,2.281-13.113-1.151-23.676
		c-5.344-13.811-29.513-24.416-59.211-25.444c-1.5-0.041-2.98-0.062-4.46-0.083h-0.268c-26.142,0-48.668,7.42-59.005,18.107
		c-9.084,9.392-9.002,28.999-5.22,41.043c2.384,7.645,9.063,14.325,16.832,19.956c9.782,7.07,36.336,19.093,50.908,28.054
		c7.748,4.747,10.79,6.844,12.208,16.031c0.514,3.432,0.617,7.378,0.349,11.982c-0.164,2.795-0.945,5.364-2.22,7.358
		c-4.582,7.214-14.777,7.707-20.634,1.767c-1.973-1.993-3.207-4.686-3.576-7.871h-0.062v-0.494v-0.041c0-0.041,0-0.062,0-0.082
		v-24.046H402.331z"/>
	<polygon fill="none" stroke="#CD2027" stroke-width="10" stroke-miterlimit="10" points="287.753,71.951 313.587,71.951 
		313.587,12.74 375.305,12.74 375.305,176.192 313.587,176.192 313.587,104.917 287.753,104.917 287.753,176.192 226.034,176.192 
		226.034,12.74 287.753,12.74 	"/>
</g>
</svg>
