<?xml version="1.0" encoding="utf-8"?>
<!-- Generator: Adobe Illustrator 17.0.0, SVG Export Plug-In . SVG Version: 6.00 Build 0)  -->
<!DOCTYPE svg PUBLIC "-//W3C//DTD SVG 1.1//EN" "http://www.w3.org/Graphics/SVG/1.1/DTD/svg11.dtd">
<svg version="1.1" id="Слой_1" xmlns="http://www.w3.org/2000/svg" xmlns:xlink="http://www.w3.org/1999/xlink" x="0px" y="0px"
	 width="115.241px" height="47.008px" viewBox="0 0 115.241 47.008" enable-background="new 0 0 115.241 47.008"
	 xml:space="preserve">
<g>
	<path fill-rule="evenodd" clip-rule="evenodd" fill="#FFFFFF" d="M3.572,46.328H0v0.68h19.788V34.516h-0.601
		c0,0-0.024,7.201-2.394,9.57c-2.015,2.015-4.138,2.205-7.617,2.205V23.309c0,0,2.402-0.171,3.564,0.991
		c1.838,1.838,2.017,4.188,2.017,7.432h0.634V14.124h-0.634c0,3.244-0.179,5.594-2.017,7.432c-1.162,1.162-3.564,0.991-3.564,0.991
		V0.717c3.48,0,5.134,0.19,7.149,2.205c2.369,2.369,2.394,9.569,2.394,9.569h0.601V0H0v0.68h3.572V46.328L3.572,46.328z"/>
	<path fill-rule="evenodd" clip-rule="evenodd" fill="#FFFFFF" d="M41.217,0.703v45.589c3.479,0,5.602-0.19,7.617-2.205
		c2.369-2.369,2.393-9.57,2.393-9.57h0.602v12.492H32.041v-0.68h3.573V0.68h-3.573V0h12.436v0.702L41.217,0.703L41.217,0.703z"/>
	<path fill-rule="evenodd" clip-rule="evenodd" fill="#FFFFFF" d="M72.875,0.703v45.589c3.479,0,5.602-0.19,7.617-2.205
		c2.369-2.369,2.393-9.57,2.393-9.57h0.602v12.492H63.699v-0.68h3.573V0.68h-3.573V0h12.436v0.702L72.875,0.703L72.875,0.703z"/>
	<path fill-rule="evenodd" clip-rule="evenodd" fill="#FFFFFF" d="M99.025,46.328h-3.572v0.68h19.788V34.516h-0.602
		c0,0-0.024,7.201-2.393,9.57c-2.015,2.015-4.138,2.205-7.617,2.205V23.309c0,0,2.402-0.171,3.564,0.991
		c1.838,1.838,2.018,4.188,2.018,7.432h0.634V14.124h-0.634c0,3.244-0.179,5.594-2.018,7.432c-1.162,1.162-3.564,0.991-3.564,0.991
		V0.717c3.48,0,5.134,0.19,7.149,2.205c2.369,2.369,2.394,9.569,2.394,9.569h0.602V0H95.453v0.68h3.572V46.328L99.025,46.328z"/>
</g>
</svg>
