<?xml version="1.0" encoding="utf-8"?>
<!-- Generator: Adobe Illustrator 17.0.0, SVG Export Plug-In . SVG Version: 6.00 Build 0)  -->
<!DOCTYPE svg PUBLIC "-//W3C//DTD SVG 1.1//EN" "http://www.w3.org/Graphics/SVG/1.1/DTD/svg11.dtd">
<svg version="1.1" id="Layer_1" xmlns="http://www.w3.org/2000/svg" xmlns:xlink="http://www.w3.org/1999/xlink" x="0px" y="0px"
	 width="320.097px" height="146.416px" viewBox="0 0 320.097 146.416" enable-background="new 0 0 320.097 146.416"
	 xml:space="preserve">
<g>
	<path fill="#FFFFFF" d="M88.096,8.201L85,24.235H74.613l-3.463,18.77h10.202l-7.106,36.994c-0.725,3.461-1.456,8.747-1.456,13.122
		c0,13.3,7.286,21.866,22.776,21.866c4.921,0,10.936,0,15.493-1.457l3.463-20.045c-2.555,0.364-5.105,0.364-6.562,0.364
		c-4.01,0-7.29-1.823-7.29-7.836c0-1.456,0.184-3.646,0.548-6.014l7.105-36.994h16.946l3.466-18.77h-16.768L116.525,0L88.096,8.201z
		"/>
	<path fill="#FFFFFF" d="M272.123,31.595c-5.06-6.144-10.657-8.303-19.457-8.303c-9.296,0-17.864,4.317-22.55,8.303l1.29-7.308
		h-26.568l-15.75,89.33h27.229l9.428-53.464c1.786-10.129,9.473-12.286,13.122-12.286c4.649,0,6.787,1.991,8.977,4.648
		L272.123,31.595z"/>
	<path fill="#FFFFFF" d="M0,111.327c2.956,1.511,10.909,4.031,24.781,4.031c23.853,0,42.533-13.44,42.533-38.139
		c0-8.401-4.071-18.312-14.979-26.879c-10.727-8.403-12.021-11.761-12.021-15.963c0-7.726,6.286-12.431,14.976-12.431
		c5.552,0,9.617,1.344,13.318,3.023l7.21-21.338c-2.958-1.678-9.057-3.527-19.601-3.527c-25.706,0-43.088,15.121-43.088,37.636
		c0,9.574,4.625,18.647,14.609,27.216c7.768,6.72,12.207,10.249,12.207,17.137c0,7.727-7.21,11.76-15.901,11.425
		c-6.661,0-13.133-1.683-17.387-3.865L0,111.327z"/>
	<path fill="#FFFFFF" d="M163.081,70.603c-3.083,15.599-7.433,22.492-12.333,22.492c-5.445,0-6.167-5.26-6.167-11.61
		c0-10.339,6.711-39,19.589-39c0.905,0,2.539,0.182,4.353,0.545L163.081,70.603z M184.487,113.593c0-9.614,1.636-27.935,3.631-37.55
		l9.791-49.159c-6.347-2.178-16.325-3.992-26.483-3.992c-39.905,0-52.967,37.732-52.967,64.759c0,15.421,6.35,27.394,20.497,27.394
		c7.259,0,16.145-5.081,22.492-15.602h0.727c-0.181,4.717-0.364,9.434-0.541,14.15H184.487z"/>
</g>
<path fill="#FFFFFF" d="M216.677,70.52l-14.753,75.896h103.42l14.753-75.895V70.52H216.677z M242.555,139.368l4.704-24.288
	c0.257-1.626,0.515-4.192,0.515-5.217c0-1.797-0.597-2.993-2.056-2.993c-1.795,0-4.533,2.48-5.729,8.553l-4.616,23.945v-0.001
	h-12.658l11.287-59.181h12.657l-4.275,21.978l0.171,0.086c2.309-2.992,5.9-5.644,10.608-5.644c5.386,0,7.778,3.763,7.778,9.579
	c0,2.395-0.424,5.39-1.024,8.724l-4.705,24.459H242.555z M271.373,139.368h-12.651l8.035-42.076h12.658L271.373,139.368z
	 M274.627,92.93h-0.085c-3.934,0-5.561-2.824-5.561-6.329c0-3.422,2.392-7.526,6.76-7.526c4.015,0,5.811,2.993,5.811,6.243
	C281.552,90.192,278.218,92.93,274.627,92.93z M305.209,106.1h-7.953l-3.337,17.36c-0.172,1.113-0.254,2.139-0.254,2.823
	c0,2.823,1.535,3.677,3.42,3.677c0.682,0,1.878,0,3.08-0.17l-1.627,9.408c-2.136,0.682-4.962,0.682-7.269,0.682
	c-7.27,0-10.693-4.018-10.693-10.261c0-2.052,0.343-4.533,0.686-6.159l3.337-17.36h-4.79l1.624-8.808h4.876l1.453-7.526
	l13.339-3.849l-2.138,11.375h7.87L305.209,106.1z"/>
</svg>
