<?xml version="1.0" encoding="utf-8"?>
<!-- Generator: Adobe Illustrator 17.0.0, SVG Export Plug-In . SVG Version: 6.00 Build 0)  -->
<!DOCTYPE svg PUBLIC "-//W3C//DTD SVG 1.1//EN" "http://www.w3.org/Graphics/SVG/1.1/DTD/svg11.dtd">
<svg version="1.1" id="Слой_1" xmlns="http://www.w3.org/2000/svg" xmlns:xlink="http://www.w3.org/1999/xlink" x="0px" y="0px"
	 width="792.667px" height="119px" viewBox="0 0 792.667 119" enable-background="new 0 0 792.667 119" xml:space="preserve">
<g>
	<path fill="#81BB5D" d="M15.111,2.556v47.375h54.768V2.556h14.784v113.231H69.879V62.7H15.111v53.088H0.495V2.556H15.111z"/>
	<path fill="#81BB5D" d="M220.237,57.996c0,38.976-23.688,59.64-52.584,59.64c-29.904,0-50.904-23.184-50.904-57.456
		c0-35.952,22.344-59.472,52.584-59.472C200.245,0.708,220.237,24.396,220.237,57.996z M132.374,59.844
		c0,24.192,13.104,45.864,36.12,45.864c23.184,0,36.288-21.336,36.288-47.04c0-22.512-11.76-46.032-36.12-46.032
		C144.47,12.637,132.374,34.98,132.374,59.844z"/>
	<path fill="#81BB5D" d="M252.661,4.068c7.392-1.512,17.976-2.352,28.056-2.352c15.624,0,25.704,2.856,32.76,9.24
		c5.712,5.04,8.904,12.768,8.904,21.504c0,14.952-9.408,24.864-21.336,28.896v0.504c8.736,3.024,13.944,11.088,16.632,22.848
		c3.696,15.792,6.384,26.712,8.736,31.08h-15.12c-1.848-3.192-4.368-12.936-7.56-27.048c-3.36-15.624-9.408-21.504-22.68-22.008
		h-13.776v49.056h-14.616V4.068z M267.277,55.644h14.952c15.624,0,25.536-8.568,25.536-21.504c0-14.616-10.584-21-26.04-21.168
		c-7.056,0-12.096,0.672-14.448,1.344V55.644z"/>
	<path fill="#FFFFFF" d="M356.484,4.068c7.392-1.512,17.976-2.352,28.056-2.352c15.624,0,25.704,2.856,32.76,9.24
		c5.712,5.04,8.904,12.768,8.904,21.504c0,14.952-9.408,24.864-21.336,28.896v0.504c8.736,3.024,13.944,11.088,16.632,22.848
		c3.696,15.792,6.384,26.712,8.736,31.08h-15.12c-1.848-3.192-4.368-12.936-7.56-27.048c-3.36-15.624-9.408-21.504-22.68-22.008
		H371.1v49.056h-14.616V4.068z M371.1,55.644h14.952c15.624,0,25.536-8.568,25.536-21.504c0-14.616-10.584-21-26.04-21.168
		c-7.056,0-12.096,0.672-14.448,1.344V55.644z"/>
	<path fill="#FFFFFF" d="M518.938,62.7h-44.016v40.824h49.056v12.264h-63.671V2.556h61.152V14.82h-46.536v35.784h44.016V62.7z"/>
	<path fill="#FFFFFF" d="M571.018,2.556v67.032c0,25.368,11.256,36.12,26.376,36.12c16.8,0,27.552-11.088,27.552-36.12V2.556h14.784
		V68.58c0,34.776-18.312,49.056-42.84,49.056c-23.184,0-40.656-13.272-40.656-48.384V2.556H571.018z"/>
	<path fill="#FFFFFF" d="M773.959,66.06c-0.84-15.792-1.848-34.775-1.68-48.888h-0.504c-3.864,13.272-8.568,27.384-14.28,43.008
		l-19.992,54.936h-11.088l-18.312-53.928c-5.376-15.96-9.912-30.576-13.104-44.016h-0.336c-0.336,14.112-1.176,33.096-2.184,50.064
		l-3.024,48.552h-13.943l7.896-113.231h18.648l19.319,54.768c4.704,13.944,8.568,26.376,11.424,38.136h0.505
		c2.855-11.424,6.888-23.855,11.928-38.136l20.16-54.768h18.647l7.056,113.231h-14.279L773.959,66.06z"/>
</g>
</svg>
