<?xml version="1.0" encoding="utf-8"?>
<!-- Generator: Adobe Illustrator 17.0.0, SVG Export Plug-In . SVG Version: 6.00 Build 0)  -->
<!DOCTYPE svg PUBLIC "-//W3C//DTD SVG 1.1//EN" "http://www.w3.org/Graphics/SVG/1.1/DTD/svg11.dtd">
<svg version="1.1" id="Layer_1" xmlns="http://www.w3.org/2000/svg" xmlns:xlink="http://www.w3.org/1999/xlink" x="0px" y="0px"
	 width="568.352px" height="121.129px" viewBox="0 0 568.352 121.129" enable-background="new 0 0 568.352 121.129"
	 xml:space="preserve">
<g>
	<path fill="#40B759" d="M404.361,52.44c-2.671-6.987-7.309-10.481-13.895-10.481c-8.814,0-13.231,3.936-13.231,11.826
		c0,3.454,1.185,6.044,3.533,7.751c2.229,1.586,6.687,4.096,13.353,7.569s11.646,7.048,14.898,10.742
		c3.253,3.674,4.879,8.594,4.879,14.758c0,5.06-1.345,9.598-4.056,13.633c-2.711,4.056-6.505,7.209-11.385,9.478
		c-4.879,2.269-10.381,3.413-16.505,3.413c-7.489,0-13.954-1.727-19.415-5.18c1.766-6.185,2.951-11.305,3.533-15.34h2.289
		c0.863,4.075,2.811,7.308,5.822,9.697c3.032,2.39,6.626,3.594,10.783,3.594c3.915,0,7.248-1.104,9.998-3.293
		c2.752-2.188,4.117-5.28,4.117-9.235c0-4.277-1.266-7.35-3.795-9.236c-2.53-1.888-6.947-4.317-13.252-7.329
		c-6.285-2.991-11.004-6.244-14.156-9.718c-3.132-3.494-4.697-8.514-4.697-15.06c0-3.493,0.582-6.786,1.767-9.858
		c1.164-3.072,2.951-5.763,5.32-8.052c2.37-2.309,5.321-4.096,8.854-5.421c3.534-1.305,7.49-1.967,11.887-1.967
		c4.116,0,7.911,0.582,11.404,1.767c3.494,1.165,6.024,2.53,7.59,4.056c-0.281,0.663-0.683,1.867-1.244,3.634
		c-0.984,2.992-1.827,5.742-2.591,8.252L404.361,52.44L404.361,52.44z"/>
	<path fill="#40B759" d="M135.458,75.711l2.992,0.121c10.622,0,15.942-5.783,15.942-17.348c0-0.864-0.06-1.827-0.18-2.912
		c-0.121-1.084-0.261-2.128-0.462-3.152c-0.622-3.714-2.208-6.144-4.738-7.289c-2.53-1.144-5.843-1.707-9.959-1.707h-3.594v32.287
		H135.458z M117.408,36.899h25.64c9.578,0,16.083,0.803,19.537,2.409c6.967,3.654,10.461,9.397,10.461,17.228
		c0,5.763-1.667,10.501-5.02,14.216c-3.353,3.694-7.931,6.204-13.754,7.489l6.063,10.18l8.012,12.529l7.229,11.123l4.692,7.429
		c-7.121-0.897-14.012-0.925-21.14,0.037c-0.233,0.003-0.46,0.004-0.68,0.004l-14.296-25.299l-3.995-6.827l-3.875-6.525h-0.824
		v38.632c-6.109-0.911-11.941-0.958-18.05,0.002L117.408,36.899L117.408,36.899z"/>
	<path fill="#40B759" d="M81.687,87.016l-10.702-28.05L59.66,87.016H81.687L81.687,87.016z M56.388,94.364l-2.972,8.433
		l-3.273,9.337l-2.209,7.126c-3.857-0.569-7.542-0.598-11.4,0.006l34.452-83.431c3.085,0.487,6.03,0.463,9.116,0l33.651,83.708
		l-0.125-0.007c-6.944-0.932-13.636-0.973-20.582,0.007h-0.054c-3.534-11.485-6.385-19.878-8.534-25.179L56.388,94.364
		L56.388,94.364z"/>
	<path fill="#40B759" d="M18.051,76.675c1.807,0,3.333-0.06,4.558-0.2c1.245-0.141,2.37-0.342,3.394-0.623
		c3.674-0.983,6.385-2.972,8.112-5.943c1.727-2.991,2.59-6.465,2.59-10.481c0-4.738-1.064-8.593-3.173-11.565
		c-2.128-2.952-4.799-4.438-8.011-4.438h-7.469v33.25H18.051z M0,119.529v-82.63h29.656c8.433,0,14.838,1.707,19.195,5.14
		c4.377,3.433,6.566,8.513,6.566,15.219c0,5.221-0.883,9.537-2.67,12.971s-4.337,6.104-7.63,8.012
		c-3.292,1.888-7.168,3.213-11.646,3.955c-2.249,0.362-4.638,0.643-7.188,0.823c-2.55,0.201-5.281,0.302-8.232,0.302v36.202
		C11.941,118.611,6.11,118.565,0,119.529L0,119.529z"/>
	<path fill="#40B759" d="M415.822,110.729c0-2.671,0.964-4.959,2.911-6.907c1.948-1.947,4.217-2.911,6.848-2.911
		c1.727,0,3.353,0.441,4.879,1.345c1.525,0.903,2.771,2.108,3.714,3.595c0.944,1.485,1.405,3.112,1.405,4.879
		c0,2.711-0.983,5.04-2.932,7.007c-1.967,1.948-4.316,2.932-7.066,2.932c-2.671,0-4.96-0.983-6.867-2.971
		C416.786,115.728,415.822,113.398,415.822,110.729L415.822,110.729z"/>
	<path fill="#40B759" d="M458.794,75.711l2.991,0.121c10.621,0,15.942-5.783,15.942-17.348c0-0.864-0.061-1.827-0.181-2.912
		c-0.12-1.084-0.261-2.128-0.462-3.152c-0.622-3.714-2.209-6.144-4.738-7.289c-2.53-1.144-5.844-1.707-9.959-1.707h-3.594v32.287
		H458.794z M440.743,36.899h25.64c9.577,0,16.083,0.803,19.537,2.409c6.967,3.654,10.461,9.397,10.461,17.228
		c0,5.763-1.667,10.501-5.02,14.216c-3.354,3.694-7.932,6.204-13.755,7.489l6.064,10.18l8.012,12.529l7.228,11.123l4.693,7.429
		c-7.121-0.897-14.013-0.925-21.141,0.037c-0.233,0.003-0.46,0.004-0.68,0.004l-14.296-25.299l-3.996-6.827l-3.875-6.525h-0.822
		v38.632c-6.109-0.911-11.941-0.958-18.051,0.002V36.899H440.743z"/>
	<path fill="#40B759" d="M299.27,36.847v82.289c-7.083-0.385-14.128-0.354-21.161,0l-37.756-65.845v65.85
		c-3.235-0.448-6.353-0.403-9.638-0.005V36.918c6.623,0.464,13.184,0.445,19.807-0.023l39.11,68.074V36.86
		c3.258,0.543,6.369,0.515,9.629-0.001v-0.012H299.27L299.27,36.847z"/>
	<path fill="#40B759" d="M517.987,36.908v32.625c0,11.284,0.281,18.773,0.863,22.407c3.689,23.976,28.726,26.604,37.695,4.859
		c1.445-3.554,2.168-11.867,2.168-24.978V37.228c3.262,0.514,6.376,0.49,9.638,0.005v40.953c0,5.274-0.228,10.096-0.884,15.34
		c-3.987,33.58-57.521,34.313-65.645,5.763c-1.264-4.577-1.887-9.517-1.887-14.817V36.899
		C506.046,37.861,511.878,37.816,517.987,36.908L517.987,36.908z"/>
	<path fill="#40B759" d="M227.343,116.768c-0.187-1.269-0.378-2.583-0.378-3.79c0-1.206,0.191-2.521,0.378-3.79l0.165-1.161
		l0.17-1.209c-0.001,0.009-1.209,0.178-1.209,0.178c-5.63,0.792-12.947,1.598-24.507,1.639V80.623h10.647
		c4.618,0,9.132,0.316,13.416,0.936l1.213,0.176c0.001,0.008-0.171-1.206-0.171-1.206l-0.166-1.161
		c-0.184-1.27-0.376-2.584-0.376-3.791c0-1.203,0.223-2.691,0.42-4.005l0.12-0.82l0.176-1.186c0,0.005-1.19,0.143-1.19,0.143
		l-1.151,0.135c-3.678,0.433-7.85,0.921-12.291,0.921h-10.647V47.1c10.522-0.164,17.609,0.688,24.507,1.656l1.208,0.17
		c0.001,0.008-0.17-1.2-0.17-1.2l-0.164-1.162c-0.187-1.271-0.378-2.584-0.378-3.791s0.191-2.52,0.378-3.791l0.165-1.161
		l0.149-1.047c-0.003,0.008-1.059,0.008-1.059,0.008h-42.077h-0.917V37.7v80.352v0.918h0.917h42.077h1.056
		c0.003,0.007-0.146-1.038-0.146-1.038L227.343,116.768L227.343,116.768z"/>
	<path fill="#40B759" d="M361.677,48.79l-0.157-1.182c-0.073-0.554-0.172-1.107-0.265-1.645c-0.191-1.077-0.387-2.19-0.387-3.308
		c0-1.019,0.184-2.05,0.377-3.142c0.099-0.552,0.199-1.123,0.274-1.692l0.141-1.039h-1.049h-56.728h-1.06
		c-0.001-0.01,0.147,1.039,0.147,1.039l0.183,1.256c0.186,1.239,0.361,2.408,0.361,3.578c0,1.276-0.188,2.529-0.368,3.742
		l-0.175,1.211l-0.173,1.214c0.001-0.009,1.214-0.185,1.214-0.185c5.097-0.734,11.867-1.565,19.438-1.629v71.516v0.959l0.959-0.041
		c1.117-0.049,2.245-0.135,3.336-0.219c1.605-0.124,3.27-0.253,4.886-0.253c1.542,0,3.212,0.127,4.827,0.251
		c1.116,0.084,2.27,0.172,3.394,0.221l0.959,0.041v-0.959V47.009c6.347,0.072,12.614,0.858,18.682,1.629L361.677,48.79
		L361.677,48.79z"/>
	<path fill="#40B759" d="M20.555,20.265l-0.753,2.976c-1.93,0.988-4.206,1.482-6.82,1.482c-1.827,0-3.54-0.276-5.137-0.828
		c-1.592-0.545-2.971-1.333-4.131-2.355c-1.161-1.017-2.068-2.258-2.729-3.711C0.33,16.38,0.003,14.8,0.003,13.094
		c0-2.178,0.356-4.097,1.063-5.763s1.683-3.045,2.942-4.125C5.266,2.125,6.72,1.315,8.369,0.793C10.018,0.264,11.81,0,13.74,0
		c1.178,0,2.402,0.144,3.678,0.437c1.27,0.293,2.384,0.712,3.338,1.264l-0.419,1.833c-0.115,0.581-0.172,0.896-0.184,0.942
		c-0.046,0.236-0.109,0.488-0.184,0.758h-0.477c-0.673-0.965-1.517-1.729-2.54-2.292c-0.54-0.288-1.063-0.512-1.574-0.655
		c-0.511-0.144-1.045-0.218-1.608-0.218c-1.367,0-2.568,0.299-3.603,0.891C9.139,3.556,8.294,4.366,7.639,5.395
		C6.978,6.418,6.501,7.55,6.197,8.785c-0.155,0.649-0.276,1.281-0.351,1.885c-0.081,0.609-0.121,1.258-0.121,1.954
		c0,1.954,0.322,3.694,0.959,5.229c0.638,1.528,1.575,2.712,2.81,3.551c1.235,0.833,2.718,1.252,4.447,1.252
		c1.045,0,2.131-0.241,3.263-0.724c1.138-0.482,2.103-1.103,2.896-1.867L20.555,20.265L20.555,20.265z"/>
	<path fill="#40B759" d="M20.941,0.621l0.994,0.104l0.855,0.08l0.741,0.017l0.742-0.034l0.856-0.063l0.977-0.104v9.003
		c0,0.948,0.391,1.608,1.178,1.999c0.788,0.385,1.729,0.581,2.833,0.581c1.545,0,3.413-0.747,5.59-2.241V0.621l0.96,0.104
		l0.856,0.063l0.724,0.034l0.758-0.017l0.874-0.08l0.994-0.104v23.614l-1.292-0.069l-1.333-0.063l-1.259,0.069l-1.281,0.063V12.727
		c-0.517,0.31-0.982,0.574-1.396,0.787c-0.339,0.178-0.742,0.385-1.213,0.609c-0.672,0.31-1.453,0.569-2.344,0.77
		c-0.885,0.207-1.81,0.305-2.775,0.305c-1.166,0-2.287-0.225-3.361-0.678c-1.068-0.46-1.953-1.115-2.643-1.971
		c-0.689-0.862-1.034-1.833-1.034-2.924L20.941,0.621L20.941,0.621z"/>
	<path fill="#40B759" d="M47.47,17.064l-0.85,2.413l-0.937,2.671l-0.638,2.057l-0.776-0.052l-0.839-0.052l-0.804,0.052l-0.845,0.052
		l9.865-23.89c0.437,0.069,0.867,0.104,1.292,0.104c0.419,0,0.856-0.035,1.316-0.104l9.63,23.919l-1.517-0.069l-1.5-0.063
		l-1.477,0.069l-1.448,0.063c-0.431-1.368-0.747-2.373-0.959-3.011c-0.374-1.115-0.644-1.908-0.81-2.39
		c-0.212-0.609-0.437-1.195-0.672-1.77L47.47,17.064L47.47,17.064z M54.71,14.961l-3.063-8.026l-3.24,8.026H54.71L54.71,14.961z"/>
	<path fill="#40B759" d="M81.974,20.265l-0.753,2.976c-1.93,0.988-4.206,1.482-6.82,1.482c-1.827,0-3.539-0.276-5.137-0.828
		c-1.591-0.545-2.97-1.333-4.131-2.355c-1.161-1.017-2.068-2.258-2.729-3.711c-0.655-1.448-0.982-3.028-0.982-4.734
		c0-2.178,0.356-4.097,1.063-5.763s1.683-3.045,2.941-4.125c1.258-1.081,2.712-1.891,4.361-2.413C71.437,0.264,73.229,0,75.16,0
		c1.178,0,2.402,0.144,3.677,0.437c1.27,0.293,2.384,0.712,3.338,1.264l-0.419,1.833c-0.115,0.581-0.173,0.896-0.184,0.942
		c-0.046,0.236-0.109,0.488-0.185,0.758H80.91c-0.672-0.965-1.517-1.729-2.54-2.292c-0.541-0.288-1.063-0.512-1.574-0.655
		s-1.046-0.218-1.609-0.218c-1.367,0-2.568,0.299-3.603,0.891c-1.028,0.597-1.873,1.407-2.528,2.436
		c-0.661,1.023-1.137,2.155-1.441,3.39c-0.156,0.649-0.276,1.281-0.351,1.885c-0.08,0.609-0.121,1.258-0.121,1.954
		c0,1.954,0.322,3.694,0.96,5.229c0.638,1.528,1.574,2.712,2.809,3.551c1.235,0.833,2.718,1.252,4.447,1.252
		c1.046,0,2.132-0.241,3.264-0.724c1.137-0.482,2.103-1.103,2.896-1.867L81.974,20.265L81.974,20.265z"/>
	<path fill="#40B759" d="M91.347,24.235l-1.293-0.069l-1.281-0.063l-1.299,0.069l-1.292,0.063V3.062
		c-1.838,0-3.976,0.161-6.412,0.489c0.115-0.776,0.167-1.27,0.167-1.482c0-0.189-0.051-0.672-0.167-1.448h17.754L97.42,1.178
		l-0.081,0.488l-0.017,0.402l0.017,0.437l0.081,0.506l0.104,0.54c-2.758-0.328-4.821-0.489-6.176-0.489L91.347,24.235L91.347,24.235
		z"/>
	<path fill="#40B759" d="M103.517,0.724h0.333l0.402-0.052l0.356-0.034l0.385-0.052c0.362,0.988,0.724,1.971,1.098,2.947
		c0.414,1.121,0.741,1.988,0.977,2.592l2.287,5.906l2.172,5.493l2.712,6.682l-1.149-0.104l-1.022-0.069l-0.861-0.035l-0.856,0.035
		c-0.201,0-0.368,0.006-0.488,0.018c-0.121,0.011-0.31,0.034-0.558,0.069l-1.126,0.086c-0.379-1.293-0.821-2.655-1.31-4.091
		c-0.54-1.574-0.982-2.821-1.333-3.74l-1.666-4.39l-1.798-4.85c-2.821,6.82-4.958,12.514-6.418,17.07
		c-0.535-0.069-1.074-0.104-1.614-0.104c-0.529,0-1.058,0.035-1.58,0.104l2.677-6.263l2.373-5.607l2.287-5.706
		c0.351-0.879,0.73-1.867,1.144-2.971c0.419-1.109,0.793-2.131,1.132-3.074l0.603,0.069C103,0.701,103.276,0.724,103.517,0.724
		L103.517,0.724z"/>
	<path fill="#40B759" d="M115.349,0.621l1.011,0.104l0.856,0.08l0.724,0.017l0.724-0.017l0.874-0.08l0.994-0.104V16.8
		c0.919-0.977,2.046-2.241,3.367-3.792c1.178-1.379,2.333-2.764,3.454-4.154c1.057-1.316,2.16-2.741,3.315-4.275
		c0.586-0.775,1.121-1.494,1.609-2.149s0.942-1.281,1.356-1.878h1.091h0.695c0.179,0,0.362,0,0.552,0c0.138,0,0.224,0,0.27,0v23.683
		l-1.281-0.069l-1.327-0.063l-1.264,0.069l-1.293,0.063V7.929c-0.505,0.569-1.017,1.161-1.54,1.775
		c-0.523,0.609-1.023,1.207-1.505,1.792l-3.539,4.292l-3.62,4.562l-2.93,3.884l-1.075-0.029l-1.517,0.029V0.621H115.349z"/>
	<path fill="#40B759" d="M139.671,0.621h8.906c1.971,0,3.608,0.408,4.907,1.218c1.292,0.816,1.941,2.155,1.941,4.016
		c0,1.012-0.258,1.908-0.775,2.695s-1.207,1.414-2.074,1.879c-0.873,0.465-1.804,0.77-2.804,0.914v0.304
		c1.649,0.167,3.097,0.684,4.344,1.551c1.247,0.862,1.867,2.241,1.867,4.137c0,1.517-0.396,2.775-1.189,3.78
		c-0.787,1.006-1.827,1.752-3.114,2.247c-1.281,0.494-2.631,0.741-4.045,0.741h-7.963V0.621H139.671z M144.819,10.756h1.092
		c1.27,0,2.235-0.288,2.896-0.856c0.988-0.822,1.482-2.017,1.482-3.591c0-1.224-0.321-2.16-0.965-2.81
		c-0.649-0.649-1.552-0.977-2.718-0.977c-0.465,0-1.057,0.034-1.787,0.103L144.819,10.756L144.819,10.756z M144.819,22.098h1.753
		c0.638,0,1.275-0.184,1.907-0.546c0.638-0.368,1.155-0.884,1.563-1.563c0.402-0.684,0.604-1.482,0.604-2.401
		c0-3.241-1.643-4.861-4.935-4.861c-0.178,0-0.339,0-0.489,0c-0.144,0-0.281,0-0.402,0v9.371H144.819z"/>
	<path fill="#40B759" d="M163.391,10.79h3.298c2.402,0,4.234,0.488,5.493,1.465c1.258,0.977,1.884,2.43,1.884,4.355
		c0,2.81-0.833,4.757-2.494,5.849c-1.66,1.097-3.803,1.643-6.429,1.643h-6.936V0.488l1.23,0.08l1.362,0.052l1.345-0.052l1.246-0.08
		V10.79H163.391z M177.18,0.621l0.977,0.104l0.856,0.063l0.741,0.034l0.741-0.017l0.856-0.08l0.994-0.104v23.614l-1.293-0.069
		l-1.298-0.063l-1.281,0.069l-1.293,0.063V0.621L177.18,0.621z M163.391,22.167c0.977,0,1.735-0.081,2.275-0.236
		c1.04-0.281,1.816-0.839,2.315-1.684c0.5-0.838,0.747-1.844,0.747-3.01c0-1.356-0.305-2.454-0.919-3.292
		c-0.609-0.833-1.374-1.252-2.281-1.252h-2.138v9.474H163.391z"/>
	<path fill="#40B759" d="M198.521,0.621c-0.109,0.798-0.167,1.292-0.167,1.482c0,0.19,0.058,0.684,0.167,1.482
		c-2.379-0.316-5.045-0.471-7.998-0.471v7.44h3.62c1.022,0,2.436-0.109,4.246-0.322c-0.115,0.672-0.172,1.155-0.172,1.448
		c0,0.281,0.057,0.781,0.172,1.5c-1.373-0.189-2.786-0.287-4.246-0.287h-3.62v8.716c2.953,0,5.619-0.155,7.998-0.471
		c-0.109,0.799-0.167,1.293-0.167,1.483l0.167,1.482h-13.164V0.621H198.521L198.521,0.621z"/>
	<path fill="#40B759" d="M222.838,24.235l-1.311-0.069l-1.281-0.063c-0.235,0-0.465,0-0.689,0c-0.27,0.035-0.471,0.058-0.604,0.069
		l-1.298,0.063V0.621h8.486c2.401,0,4.229,0.488,5.487,1.465c1.258,0.976,1.885,2.43,1.885,4.355c0,1.942-0.437,3.464-1.304,4.573
		c-0.873,1.104-2.098,1.867-3.688,2.287c-1.586,0.42-3.482,0.632-5.683,0.632L222.838,24.235L222.838,24.235z M222.838,11.997
		c0.506,0,0.931-0.017,1.27-0.058c0.345-0.04,0.678-0.097,1.006-0.178c1.04-0.282,1.815-0.845,2.315-1.701
		c0.5-0.851,0.747-1.851,0.747-2.994c0-1.356-0.304-2.453-0.919-3.292c-0.608-0.833-1.373-1.252-2.281-1.252h-2.137L222.838,11.997
		L222.838,11.997z"/>
	<path fill="#40B759" d="M245.333,24.723c-2.563,0-4.798-0.477-6.711-1.437c-1.913-0.959-3.401-2.367-4.458-4.217
		c-1.063-1.85-1.592-4.074-1.592-6.665c0-1.707,0.299-3.31,0.902-4.815c0.598-1.505,1.494-2.833,2.694-3.981
		c1.195-1.149,2.626-2.04,4.298-2.666C242.139,0.316,244.035,0,246.155,0c2.327,0,4.327,0.373,6.004,1.12s2.999,1.712,3.964,2.901
		s1.672,2.505,2.12,3.942c0.448,1.431,0.673,2.867,0.673,4.304c0,1.672-0.316,3.269-0.942,4.78
		c-0.626,1.517-1.534,2.844-2.712,3.987c-1.178,1.149-2.608,2.046-4.298,2.707C249.274,24.396,247.396,24.723,245.333,24.723
		L245.333,24.723z M238.295,13.416c0,1.58,0.247,3.074,0.747,4.476s1.292,2.545,2.378,3.436c1.081,0.885,2.442,1.327,4.08,1.327
		c1.672,0,3.091-0.506,4.252-1.517c1.16-1.005,2.022-2.355,2.591-4.044s0.851-3.517,0.851-5.481c0-1.167-0.138-2.304-0.414-3.418
		c-0.275-1.109-0.707-2.132-1.304-3.068c-0.591-0.937-1.361-1.684-2.298-2.229c-0.937-0.552-2.022-0.828-3.258-0.828
		c-1.591,0-2.965,0.414-4.125,1.247c-1.108,0.793-1.971,2.045-2.58,3.752C238.6,8.773,238.295,10.888,238.295,13.416L238.295,13.416
		z"/>
	<path fill="#40B759" d="M258.578,21.609l2.373-5.573l2.068-4.981c0.799-1.919,1.54-3.787,2.224-5.608
		c0.649-1.649,1.264-3.281,1.839-4.895c0.132,0,0.27,0,0.419,0c0.155,0.034,0.281,0.057,0.368,0.074
		c0.092,0.018,0.207,0.035,0.345,0.046c0.144,0.012,0.247,0.018,0.31,0.018c0.137,0,0.27,0,0.408,0
		c0.144-0.034,0.259-0.058,0.333-0.069c0.27-0.046,0.517-0.069,0.741-0.069c2.27,6.228,4.993,13.249,8.182,21.057h1.649
		l-0.201,1.839c0,0.569,0.069,1.195,0.201,1.867h-0.523c-0.401-0.505-1.114-0.833-2.143-0.982c-1.028-0.155-2.188-0.23-3.493-0.23
		h-10.182c-1.528,0-2.78,0.069-3.763,0.201c-0.982,0.138-1.695,0.471-2.132,1.011h-0.523c0.057-0.247,0.104-0.528,0.138-0.845
		c0.034-0.31,0.052-0.655,0.052-1.022c0-0.207-0.018-0.471-0.052-0.793c-0.035-0.328-0.081-0.678-0.138-1.046L258.578,21.609
		L258.578,21.609z M272.362,21.609c-0.661-2.04-1.408-4.16-2.235-6.343l-3.045-8.165c-2.574,6.303-4.43,11.141-5.574,14.507
		l2.356,0.086l2.844,0.052l3.08-0.052L272.362,21.609L272.362,21.609z"/>
	<path fill="#40B759" d="M280.355,0.621l1.012,0.104l0.855,0.08l0.725,0.017l0.724-0.017l0.873-0.08l0.994-0.104V16.8
		c0.919-0.977,2.045-2.241,3.367-3.792c1.178-1.379,2.332-2.764,3.453-4.154c1.057-1.316,2.16-2.741,3.314-4.275
		c0.587-0.775,1.121-1.494,1.609-2.149s0.942-1.281,1.355-1.878h1.092h0.695c0.178,0,0.362,0,0.552,0c0.138,0,0.224,0,0.271,0
		v23.683l-1.282-0.069l-1.327-0.063l-1.264,0.069l-1.293,0.063V7.929c-0.506,0.569-1.017,1.161-1.54,1.775
		c-0.522,0.609-1.022,1.207-1.505,1.792l-3.539,4.292l-3.62,4.562l-2.93,3.884l-1.074-0.029l-1.518,0.029V0.621H280.355z"/>
	<path fill="#40B759" d="M313.986,24.235l-1.293-0.069l-1.281-0.063l-1.299,0.069l-1.292,0.063V3.062
		c-1.839,0-3.977,0.161-6.412,0.489c0.115-0.776,0.166-1.27,0.166-1.482c0-0.189-0.051-0.672-0.166-1.448h17.754l-0.104,0.557
		l-0.081,0.488l-0.017,0.402l0.017,0.437l0.081,0.506l0.104,0.54c-2.758-0.328-4.821-0.489-6.177-0.489V24.235L313.986,24.235z"/>
	<path fill="#40B759" d="M334.172,0.621c-0.109,0.798-0.167,1.292-0.167,1.482c0,0.19,0.058,0.684,0.167,1.482
		c-2.379-0.316-5.045-0.471-7.998-0.471v7.44h3.62c1.022,0,2.436-0.109,4.246-0.322c-0.115,0.672-0.173,1.155-0.173,1.448
		c0,0.281,0.058,0.781,0.173,1.5c-1.373-0.189-2.787-0.287-4.246-0.287h-3.62v8.716c2.953,0,5.619-0.155,7.998-0.471
		c-0.109,0.799-0.167,1.293-0.167,1.483l0.167,1.482h-13.163V0.621H334.172L334.172,0.621z"/>
	<path fill="#40B759" d="M344.722,0.724h0.334l0.402-0.052l0.355-0.034l0.385-0.052c0.362,0.988,0.725,1.971,1.098,2.947
		c0.414,1.121,0.741,1.988,0.977,2.592l2.287,5.906l2.172,5.493l2.712,6.682l-1.149-0.104l-1.022-0.069l-0.861-0.035l-0.856,0.035
		c-0.201,0-0.367,0.006-0.488,0.018c-0.121,0.011-0.311,0.034-0.558,0.069l-1.126,0.086c-0.379-1.293-0.821-2.655-1.31-4.091
		c-0.54-1.574-0.983-2.821-1.333-3.74l-1.667-4.39l-1.798-4.85c-2.821,6.82-4.958,12.514-6.418,17.07
		c-0.534-0.069-1.074-0.104-1.614-0.104c-0.528,0-1.058,0.035-1.58,0.104l2.677-6.263l2.373-5.607l2.287-5.706
		c0.351-0.879,0.729-1.867,1.144-2.971c0.419-1.109,0.793-2.131,1.132-3.074l0.604,0.069C344.205,0.701,344.481,0.724,344.722,0.724
		L344.722,0.724z"/>
	<path fill="#40B759" d="M356.554,0.621l1.012,0.104l0.855,0.08l0.725,0.017l0.724-0.017l0.874-0.08l0.993-0.104V16.8
		c0.919-0.977,2.046-2.241,3.367-3.792c1.178-1.379,2.333-2.764,3.453-4.154c1.058-1.316,2.16-2.741,3.315-4.275
		c0.586-0.775,1.12-1.494,1.608-2.149s0.942-1.281,1.356-1.878h1.091h0.696c0.178,0,0.361,0,0.551,0c0.138,0,0.224,0,0.27,0v23.683
		l-1.281-0.069l-1.326-0.063l-1.265,0.069l-1.293,0.063V7.929c-0.505,0.569-1.017,1.161-1.54,1.775
		c-0.522,0.609-1.022,1.207-1.505,1.792l-3.539,4.292l-3.62,4.562l-2.93,3.884l-1.074-0.029l-1.518,0.029V0.621H356.554z"/>
</g>
</svg>
