<?xml version="1.0" encoding="utf-8"?>
<!-- Generator: Adobe Illustrator 17.0.0, SVG Export Plug-In . SVG Version: 6.00 Build 0)  -->
<!DOCTYPE svg PUBLIC "-//W3C//DTD SVG 1.1//EN" "http://www.w3.org/Graphics/SVG/1.1/DTD/svg11.dtd">
<svg version="1.1" id="logo" xmlns="http://www.w3.org/2000/svg" xmlns:xlink="http://www.w3.org/1999/xlink" x="0px" y="0px"
	 width="537.798px" height="255.291px" viewBox="0 0 537.798 255.291" enable-background="new 0 0 537.798 255.291"
	 xml:space="preserve">
<g id="group">
	<g id="sd">
		<g>
			<path fill="#FFFFFF" d="M427.029,22.192c0.318,2.973,2.611,9.958,2.611,9.958l0.221,8.047c0,0,3.174,0.247,4.999,2.524
				c1.829,2.28,0.651,5.249,0.651,5.249s5.574,1.788,6.457,4.611c0.881,2.823,1.015,5.441,1.015,5.441s6.538,0.312,10.506,8.053
				c3.965,7.741,7.61,12.859,9.606,15.888c1.997,3.029,5.834,7.778,7.044,13.036c1.208,5.258,4.312,18.968,6.403,27.045
				c2.088,8.08,3.662,13.719,3.81,15.779c0.147,2.058-1.022,4.656-1.022,4.656s2.901,4.73,3.067,5.854
				c0.164,1.122-0.115,5.98-0.115,5.98s3.335,1.562,3.481,3.808c0.143,2.249-1.597,5.389-1.597,5.389s3.326,1.936,4.578,4.95
				c1.253,3.015,3.437,6.048,5.49,6.276c2.054,0.226,4.708-1.779,4.708-1.779s2.597,1.169,5.412,0.475
				c2.818-0.693,4.922-3.085,6.424-3.432c1.505-0.343,5.216,1.035,9.148,0.74c3.932-0.296,7.528-2.478,7.528-2.478
				s3.174,0.062,4.149-1.976c0.974-2.037,0.244-3.172,0.244-3.172s1.227-0.377,1.824-2.192c0.596-1.809,0.068-3.505,0.068-3.505
				s1.282-1.095,1.452-2.771c0.172-1.678-1.057-3.389-1.057-3.389s1.421-0.948,1.873-2.623c0.451-1.673,0.069-3.502,0.069-3.502
				s0.725-1.386,1.318-3.06c0.597-1.672-0.355-3.511-0.355-3.511s0.737-1.805,0.629-3.49c-0.11-1.685-1.89-3.825-1.89-3.825
				s1.288-1.231,1.338-3.898c0.05-2.662-1.052-3.667-1.052-3.667s0.597-1.666,0.212-3.777c-0.379-2.11-1.206-2.83-1.206-2.83
				s0.737-1.946-0.201-4.346c-0.936-2.399-1.91-2.7-1.91-2.7s0.873-1.664,0.496-4.056c-0.376-2.39-1.466-3.952-1.466-3.952
				s0.59-1.533-0.061-4.066c-0.656-2.533-1.627-3.115-1.627-3.115s0.033-1.541-0.625-3.797c-0.658-2.251-2.043-3.26-2.043-3.26
				s0.455-1.678-0.334-4.495c-0.785-2.818-1.617-3.395-1.617-3.395s0.32-1.957-0.478-4.356c-0.797-2.393-1.635-2.55-1.635-2.55
				s0.036-1.686-1.034-4.509c-1.069-2.822-2.185-3.122-2.185-3.122s0.311-1.674-0.893-4.643c-1.202-2.967-2.178-3.407-2.178-3.407
				s-0.232-2.243-1.312-4.508c-1.08-2.263-1.784-2.139-1.784-2.139s-0.524-1.83-2.017-4.664c-1.485-2.832-2.339-2.149-2.339-2.149
				s-0.778-3.374-1.709-5.916c-0.93-2.544-2.055-2.423-2.055-2.423s-0.247-1.828-1.742-4.379c-1.492-2.553-2.495-1.588-2.495-1.588
				s-0.372-2.528-2.161-4.244c-1.789-1.719-3.187-2.025-3.187-2.025s-0.388-1.548-1.883-4.099c-1.492-2.554-2.611-2.857-2.611-2.857
				s-0.811-1.693-2.867-3.838c-2.062-2.141-3.479-1.326-3.479-1.326s-1.365-1.988-3.311-2.728c-1.952-0.739-2.795-0.614-2.795-0.614
				s-0.956-1.417-2.884-3.278c-1.923-1.858-2.63-1.592-2.63-1.592s-2.762-2.295-6.404-2.507c-3.637-0.208-6.711-0.83-9.673-0.044
				c-2.954,0.785-7.052,2.389-7.052,2.389s-8.003,0.826-13.121,4.374c-5.117,3.55-5.777,8.722-5.777,8.722
				S426.312,15.591,427.029,22.192z"/>
			
				<rect x="474.681" y="141.777" transform="matrix(0.5135 0.8581 -0.8581 0.5135 361.4521 -333.4329)" fill="#FFFFFF" width="0.196" height="20.538"/>
			
				<rect x="475.435" y="143.335" transform="matrix(0.3947 0.9188 -0.9188 0.3947 428.8468 -344.0287)" fill="#FFFFFF" width="0.194" height="20.268"/>
			
				<rect x="466.837" y="155.931" transform="matrix(0.9951 -0.0984 0.0984 0.9951 -13.0371 47.7309)" fill="#FFFFFF" width="21.029" height="0.195"/>
			
				<rect x="466.57" y="159.818" transform="matrix(0.9721 0.2347 -0.2347 0.9721 50.8836 -107.7322)" fill="#FFFFFF" width="22.993" height="0.195"/>
			
				<rect x="475.071" y="144.686" transform="matrix(0.2457 0.9693 -0.9693 0.2457 512.6708 -340.566)" fill="#FFFFFF" width="0.194" height="28.9"/>
			<polygon fill="#FFFFFF" points="461.249,162.892 492.311,172.004 492.367,171.815 461.301,162.709 			"/>
			
				<rect x="473.909" y="139.107" transform="matrix(0.5294 0.8484 -0.8484 0.5294 354.1917 -329.404)" fill="#FFFFFF" width="0.195" height="30.888"/>
			
				<rect x="471.51" y="129.971" transform="matrix(0.7975 0.6033 -0.6033 0.7975 184.9703 -254.4922)" fill="#FFFFFF" width="0.191" height="36.672"/>
			
				<rect x="473.587" y="126.599" transform="matrix(0.7809 0.6247 -0.6247 0.7809 195.6115 -263.6956)" fill="#FFFFFF" width="0.195" height="40.766"/>
			
				<rect x="461.047" y="89.856" transform="matrix(0.6172 0.7868 -0.7868 0.6172 258.8545 -322.7752)" fill="#FFFFFF" width="0.195" height="29.565"/>
			
				<rect x="457.361" y="73.671" transform="matrix(0.9233 0.3841 -0.3841 0.9233 71.5203 -168.4331)" fill="#FFFFFF" width="0.196" height="42.348"/>
			
				<rect x="450.003" y="57.906" transform="matrix(0.9991 0.0413 -0.0413 0.9991 3.9259 -18.5168)" fill="#FFFFFF" width="0.192" height="55.695"/>
			<path fill="#FFFFFF" d="M466.434,157.004l-4.717,2.061l0.082,0.564l-6.897,3.98l-1.665-1.155l-1.175-1.985
				c0,0-0.919-0.858-1.564-1.432c-0.641-0.574-0.453-0.568-0.453-0.568s0.109-0.933,0.119-1.494c0.005-0.29-0.382-0.839-0.765-1.301
				c0.758-1.101,1.951-2.042,1.951-2.042s1.249,0.588,1.906,0.645c0.654,0.06,1.091-0.916,1.194-1.378
				c0.102-0.466,0.675-1.112,0.778-1.623c0.106-0.515,0.073-1.216,0.308-1.489c0.24-0.278,0.799-0.221,0.903-0.639
				c0.099-0.417-0.208-1.5-0.208-1.5s0.766-0.778,0.817-1.106c0.054-0.326-0.261-1.128-0.261-1.128s0.353-1.302-0.098-2.057
				c-0.453-0.757-0.021-1.404-0.708-2.071c-0.692-0.667-3.02-3.918-8.1-2.283c-1.756,0.566-2.812,2.471-3.323,3.405
				c-0.238-0.791-0.373-1.411-0.373-1.411s-1.318-4.512-1.699-6.617c-0.046-0.265-0.11-0.531-0.196-0.797
				c2.393-6.17,5.331-13.826,6.722-17.711c0.581-1.616,0.549-1.826,0.549-1.826l0.064-1.166l-4.606,6.267l0.549,0.711l-4.305,11.622
				c-0.173-0.241-0.36-0.455-0.555-0.635l0.244-1.427l4.244-13.089l0.098-0.373l32.454-33.832l-0.143-0.132L445.4,115.563
				l0.124-0.469l15.35-49.039l-0.187-0.058l-15.538,49.635c-0.093,0.167-0.199,0.343-0.32,0.517l-1.541-52.774
				c2.827-1.297,7.247-3.329,7.247-3.329c0.045-0.016,0.066-0.062,0.054-0.112c-0.009-0.041-1.093-4.443-5.312-9.254
				c-4.251-4.84-9.663-2.853-9.716-2.834c-0.048,0.02-0.075,0.07-0.065,0.115c0,0.003,5.291,16.328,5.291,16.328
				c-0.003,0.003,1.703,46.847,1.928,52.976l-0.323,0.683l-8.409,10.187c-0.496,0.066-1.132,0.302-1.304,0.371
				c-0.265,0.103-0.319,0.568-0.319,0.568s-0.532-0.07-0.834,0.053c-0.303,0.123-2.114,1.293-2.353,1.816
				c-0.237,0.519,0.017,3.074-0.118,3.588c-0.135,0.51-1.392,1.682-2.594,2.875c-1.203,1.186-3.838,3.437-4.911,4.28
				c-1.073,0.848-1.693,2.836-2.438,3.976c-0.74,1.137-0.295,2.826,0.167,3.151c0.461,0.326,1.108,0.863,2.133,0.974
				c1.024,0.116,1.768,0.597,1.768,0.597l-0.671,0.735l-4.315,0.664l-2.459,1.543l-1.253,2.033l0.553,0.476l-0.761,0.548
				l-2.141-0.323l1.388,0.683c0,0-2.552,1.354-4.477,4.307c-1.927,2.954-2.149,4.82-3.014,6.113c-0.867,1.296-3.072,4.15-3.072,4.15
				s-1.019-0.302-2.057,0.146c-1.04,0.453-1.207,1.799-1.207,1.799s1.194-0.443,2.435-0.622c1.241-0.185,2.258,0.196,2.258,0.196
				s-3.841-0.948-9.189,3.383c-3.311,2.679-7.811,6.928-11.224,10.163c-4.841,4.585-6.272,3.466-7.524,4.226
				c-1.247,0.762-1.57,2.05-2.148,2.88c-0.574,0.827-1.613,1.918-1.887,2.324c-0.271,0.408-1.063,2.708-1.068,2.978
				c-0.005,0.261-0.425,0.697-0.21,1.191c0.218,0.491,0.443,0.38,0.443,0.38s-0.76,0.737-0.625,1.372
				c0.136,0.639,0.589,0.54,0.589,0.54s-0.683,0.476-0.58,0.998c0.103,0.528,0.586,0.572,0.586,0.572s-0.785,0.212-0.614,0.778
				c0.179,0.561,0.933,0.6,0.933,0.6s-0.776,0.933,0.073,1.695c0.847,0.77,2.145-0.741,2.415-1.034
				c0.269-0.298,1.563-1.657,2.212-2.169c0.643-0.507,1.275-2.295,2.008-3.329c0.729-1.035,2.427-3.588,3.834-4.868
				c0.674-0.61,1.454-1.171,2.151-1.98c0.756-0.881,1.432-2.018,2.246-2.728c1.56-1.354,6.37-4.027,9.006-5.066
				c2.636-1.036,5.425-4.053,6.666-4.365c1.243-0.311,3.908-0.932,5.532-1.541c1.62-0.606,2.116-1.192,2.116-1.192
				s0.326,0.527,0.895,0.201c0.57-0.322,1.153-1.326,1.53-1.541c0.376-0.22,1.399-0.946,1.399-0.946s0.098-0.855,0.508-0.43
				c0.414,0.427,1.407,2.274,2.049,3.033c0.638,0.76,2.534,1.825,2.957,1.877c0.418,0.054,0.832,0.528,1.199,0.77
				c0.369,0.244,0.936-0.074,0.936-0.074s0.496,0.897,1.375,1.289c0.884,0.388,1.776,0.173,1.776,0.173l1.253,0.491l1.543-0.111
				c0,0,0.985-0.263,2.118-0.662c1.129-0.398,3.727-1.845,6.948-1.689c3.225,0.155,4.947,0.515,4.947,0.515s-4.149-0.643-7.198-0.09
				c-3.048,0.548-4.521,1.83-6.022,2.127c-1.503,0.298-4.69,0.662-5.385,0.552c-0.704-0.105-0.688-0.761-1.391-0.68
				c-0.703,0.079-1.5,0.253-1.964,0.011c-0.461-0.244-0.572-1.882-1.787-1.998c-1.21-0.116-1.969,0.348-2.075,0.908
				c-0.105,0.557-0.065,1.154-0.065,1.154s-0.61,0.081-0.813,0.919c-0.205,0.84-1.153,1.476-1.121,2.458
				c0.026,0.979,0.496,0.897,0.496,0.897s-0.29,0.462,0.128,0.752c0.412,0.287,1.206,0.442,1.955,0.222
				c0.752-0.22,1.69-0.341,1.877-0.291c0.185,0.05,1.067,0.394,1.534,0.451c0.467,0.054,1.227-0.63,2.583-0.7
				c1.357-0.068,3.56-0.258,7.14,0.651c3.585,0.911,6.93,1.908,9.46,1.489c2.53-0.416,4.468-1.316,5.684-1.435
				c1.218-0.116,3.412-0.028,4.5-0.757c1.095-0.724,1.906-1.83,1.394-4.366c-0.185-0.911-0.361-1.427-0.54-1.743
				c1.12,0.441,2.181,0.737,2.851,0.717c1.822-0.054,9.612,2.442,9.612,2.442l0.512,0.016c0,0,1.427,0.308,2.43,0.168
				c1.001-0.139,1.298-0.719,1.298-0.719s0.971-0.176,1.359-0.646c0.393-0.474-0.126-0.639-0.126-0.639s0.418-0.372,0.508-0.697
				c0.086-0.326-0.356-0.679-0.356-0.679s0.426-0.51,0.279-0.88c-0.142-0.375-0.949-0.152-0.949-0.152s0.435-0.705,0.265-1.113
				c-0.172-0.406-0.925-0.614-0.925-0.614s-0.021-0.169,0.001-0.565c0.026-0.396-0.304-1.044-0.74-0.905
				c-0.09,0.028-0.163,0.101-0.224,0.192l-0.269-0.504l-0.713-0.735l-5.453-9.569c0.404-0.22-0.168-0.969-0.168-0.969l2.312-3.603
				l-1.034,0.163l-2.206,3.047l-2.962-1.555l12.293-7.335L466.434,157.004z M435.673,47.868c0.561-0.187,5.522-1.542,9.458,2.945
				c3.998,4.55,5.146,8.686,5.25,9.091c-0.097,0.046-4.34,1.994-7.097,3.257l-0.152-5.234l-0.197,0.003l0.159,5.323
				c-1.203,0.552-2.079,0.953-2.12,0.974C440.859,63.871,435.98,48.818,435.673,47.868z M440.987,64.433
				c0.005-0.001,0.888-0.406,2.107-0.97l1.55,52.939c-0.131,0.172-0.273,0.337-0.421,0.484c-0.61,0.588-1.089,0.478-1.31,0.361
				C442.687,111.126,440.998,64.761,440.987,64.433z M441.757,175.359c-3.775-2.262-6.337-2.347-6.337-2.347l1.691-1.081
				c0,0,0.245-0.234,1.366-0.695c1.124-0.451,2.488-0.985,3.212-1.367c0.005-0.003,0.015-0.005,0.017-0.011
				c0.281,1.605,1.073,3.534,1.519,4.206c0.443,0.67,0.765,2.287,1.309,3.348C443.763,177.073,442.588,175.861,441.757,175.359z
				 M442.164,147.614c-0.052-0.013-0.09-0.024-0.14-0.034c-0.565-0.75-1.292-1.649-1.71-2.174c-0.688-0.852-1.632-2.55-1.632-2.55
				s0.037-0.101,0.103-0.266c0.88-0.425,1.795-0.425,2.679,1.161c0.586,1.047,1.237,2.696,1.935,4.378
				C443.083,147.939,442.687,147.745,442.164,147.614z M439.058,130.384c-1.412,0.675-0.45,3.282-0.45,3.282l-3.29,1.694
				c0,0-0.704,6.089-0.21,7.663l-0.214-0.105c0,0-1.404,0.114-2.245,0.098c-0.361-0.008-0.647,0.304-0.86,0.656
				c-2.308-0.228-2.918-0.368-3.8-0.304c-1.031,0.074-0.455,3.067-3.187,4.326c2.468-1.69,2.365-5.668,3.625-7.217
				c1.261-1.55,4.869-4.91,5.653-5.426c0.782-0.508,0.556-2.005,0.709-2.202c0.154-0.199,0.682-1.427,0.476-1.685
				c-0.209-0.262-0.615-0.778-0.615-0.778s0.116-1.052,0.053-1.706l8.007-10.425l-1.832,10.102l-0.96,1.92
				C439.461,129.934,439.525,130.162,439.058,130.384l19.153,35.997c0,0,0.143,0.744,0.707,0.847l0.123,0.303l5.717,10.035
				l0.034,1.904c-0.365,0.27-0.773,0.596-0.884,0.787c-0.222,0.389-0.404,1.214-0.404,1.214c-0.247,0.84-2.501-0.337-3.775-0.717
				c-1.273-0.381-5.125-2.302-6.599-3.1c-1.473-0.799-2.439-0.944-2.439-0.944s0.47-2.381-0.909-6.222
				c-0.306-0.846-0.668-2.414-0.805-3.018l0.514,0.238l1.232-0.817l1.13-0.447l1.498-0.155l1.129-0.541l3.73,0.631L439.058,130.384z
				"/>
			<path fill="#FFFFFF" d="M432.58,82.907c3.569,16.442,16.649,30.484,16.782,30.625l0.139-0.134
				c-0.128-0.142-13.173-14.145-16.731-30.533c-3.563-16.407-2.62-50.978-2.611-51.327l-0.195-0.004
				C429.954,31.88,429.01,66.479,432.58,82.907z"/>
		</g>
		<path fill="#FFFFFF" d="M119.552,65.016C407.528,3.137,534.708,207.033,534.708,207.033S407.984,0.788,110.953,57.253
			C-41.519,86.237-40.623,222.225,137.141,248.98c133.15,20.042,234.683-41.343,234.683-41.343s-93.486,53.657-223.428,36.049
			C-25.085,220.18-28.272,96.78,119.552,65.016z"/>
	</g>
	<path id="dz" fill="#FFFFFF" d="M141.756,122.569l0.623,1.625c-3.53,1.641-7.535,3.333-12.016,5.056l-1.248,0.476
		c0.181-1.116,0.379-2.479,0.574-4.087c0.165-1.281,0.312-2.414,0.427-3.399c0.197-1.379,0.295-2.512,0.295-3.366
		c0-1.953-0.936-2.938-2.79-2.938c-3.022,0-6.583,1.33-10.687,3.989c-5.515,3.563-8.273,7.683-8.273,12.361
		c0,1.69,0.723,2.807,2.182,3.333c1.461,0.525,4.581,0.787,9.374,0.787h0.623c0.082-1.018,0.131-1.723,0.131-2.102
		c0-2.724-0.377-5.121-1.149-7.173c3.202,0.772,4.81,3.595,4.81,8.47v0.805l7.552-0.131c3.497,0,5.974,0.262,7.404,0.772
		c4.776,1.69,7.173,5.187,7.173,10.473c0,7.124-2.66,13.953-7.978,20.486c-6.353,7.798-14.102,11.688-23.228,11.688
		c-6.714,0-11.803-2.708-15.299-8.125c-7.961,5.007-16.366,7.501-25.247,7.501c-6.829,0-13.05-1.543-18.665-4.612
		c-10.932-6.024-16.398-16.317-16.398-30.878c0-9.242,2.446-16.81,7.353-22.702c4.909-5.893,11.179-8.849,18.812-8.849
		c7.404,0,13.789,2.397,19.142,7.175c2.971,2.626,5.384,5.843,7.206,9.635c1.838,3.792,3.923,9.867,6.253,18.205l2.414,8.652
		c1.313,4.694,2.495,8.224,3.546,10.637c3.184-1.887,6.369-5.318,9.554-10.293c3.184-4.974,5.154-9.553,5.892-13.756l-2.216,0.05
		c-5.352,0-9.127-0.443-11.326-1.33c-2.201-0.87-3.299-2.413-3.299-4.579c0-3.53,1.936-7.552,5.827-12.082
		c3.102-3.612,6.779-6.468,11.014-8.536c4.219-2.069,9.702-3.677,16.399-4.827l1.625-0.295l-0.131,0.772
		c-0.328,1.445-0.592,2.725-0.772,3.858l-0.772,4.514c-0.23,1.444-0.345,2.38-0.345,2.79c0,0.936,0.379,1.396,1.15,1.396
		c0.557,0,1.116-0.115,1.69-0.345C140.246,123.161,141.182,122.8,141.756,122.569z M123.765,142.186
		c-1.051,4.481-3.317,9.193-6.78,14.085c-3.464,4.909-7.304,8.881-11.539,11.885c1.575,3.366,3.299,5.729,5.204,7.091
		c1.887,1.363,4.349,2.053,7.402,2.053c6.189,0,11.672-2.545,16.432-7.65c4.761-5.089,7.142-10.949,7.142-17.548
		c0-3.727-1.035-6.304-3.104-7.732c-2.067-1.428-5.778-2.135-11.146-2.135h-2.396L123.765,142.186z M99.437,169.847
		c-1.543-3.399-2.675-6.452-3.415-9.144l-3.841-14.151c-3.053-11.244-6.73-19.419-11.015-24.508
		c-4.3-5.072-9.652-7.617-16.071-7.617c-6.697,0-11.934,2.249-15.708,6.73c-3.76,4.499-5.647,10.72-5.647,18.665
		c0,4.137,0.754,8.322,2.282,12.557c1.526,4.235,3.579,7.913,6.189,11.015c3.266,3.907,7.222,6.96,11.868,9.144
		c4.663,2.182,9.538,3.266,14.627,3.266C85.532,175.805,92.443,173.819,99.437,169.847z M165.214,159.406
		c1.641,0.263,2.988,0.969,4.071,2.133c1.067,1.183,1.609,2.512,1.609,4.022c0,0.739-0.148,1.642-0.427,2.692l-0.87,3.086
		c-0.181,0.74-0.279,1.363-0.279,1.871c0,1.789,0.821,2.692,2.446,2.692c1.444,0,2.84-0.919,4.202-2.757
		c1.363-1.856,2.479-4.334,3.35-7.437c0.639,0.952,0.952,1.92,0.952,2.889c0,2.151-1.445,4.514-4.334,7.091
		c-2.872,2.578-5.499,3.874-7.879,3.874c-2.971,0-4.465-1.608-4.465-4.81c0-1.166,0.394-2.807,1.198-4.958
		c0.937-2.479,1.396-4.251,1.396-5.351c0-3.628-2.463-5.434-7.404-5.434c-0.295,0-0.756,0.017-1.395,0.05
		c-0.476,1.198-1.166,2.905-2.069,5.154l-1.445,3.71c-1.083,2.725-2.1,5.5-3.036,8.306l-0.328,1.019
		c-1.445,0.295-3.317,0.87-5.631,1.723l-0.87,0.295c1.477-3.135,3.266-7.322,5.352-12.559l5.433-13.69l5.86-14.954
		c3.628-9.209,5.483-14.791,5.581-16.745c0.066-1.28-0.574-1.92-1.92-1.92c-0.51,0-1.034,0.099-1.543,0.279l-1.199,0.443
		c-0.163,0.049-0.442,0.148-0.819,0.279l-0.427-1.494c4.038-1.379,8.126-3.217,12.262-5.532l0.903-0.525
		c-0.705,6.763-3.939,16.958-9.701,30.583c-1.297,3.086-2.397,5.827-3.333,8.224l-0.623,1.543c3.497-4.268,7.404-7.65,11.721-10.146
		c4.3-2.511,8.388-3.759,12.229-3.759c2.955,0,4.432,1.084,4.432,3.266c0,2.413-1.608,4.727-4.825,6.96
		c-3.235,2.233-7.404,3.94-12.543,5.122C167.808,155.319,165.92,156.911,165.214,159.406z M161.52,154.202h0.674
		c4.745,0,9.176-0.985,13.28-2.938s6.156-4.055,6.156-6.337c0-1.789-0.952-2.692-2.84-2.692c-2.215,0-5.105,1.232-8.683,3.71
		C166.527,148.408,163.67,151.164,161.52,154.202z M198.948,140.364c0.508,1.313,0.756,2.922,0.756,4.86
		c0,3.939-0.92,9.553-2.775,16.825c5.057-6.665,9.783-11.885,14.151-15.661c4.382-3.759,7.879-5.647,10.506-5.647
		c1.856,0,2.791,1.56,2.791,4.663c0,7.896-4.614,16.761-13.856,26.593c-4.202,4.499-8.142,7.798-11.836,9.916
		c-3.677,2.118-7.928,3.546-12.739,4.284c-4.136,0.641-7.124,1.592-8.945,2.873c-1.822,1.28-2.742,3.069-2.742,5.351
		c0,1.724,0.871,3.119,2.627,4.202c1.74,1.068,4.022,1.609,6.812,1.609c3.432,0,6.567-0.854,9.423-2.544
		c-0.74,4.005-3.858,6.007-9.374,6.007c-3.299,0-6.007-0.787-8.092-2.364c-2.086-1.559-3.119-3.595-3.119-6.107
		c0-3.135,1.559-6.435,4.661-9.898c1.511-1.642,3.119-2.758,4.843-3.366c1.707-0.607,4.925-1.165,9.636-1.641
		c4.268-0.443,7.683-1.494,10.244-3.119c4.136-2.626,7.666-6.073,10.588-10.342c1.69-2.479,3.119-5.237,4.284-8.306
		c1.15-3.053,1.725-5.63,1.725-7.716c0-2.626-0.887-3.939-2.643-3.939c-2.988,0-7.124,3.184-12.41,9.57
		c-5.286,6.386-9.849,13.69-13.658,21.931l-0.426,0.918h-1.691l0.476-1.822c3.661-12.852,5.483-22.145,5.483-27.839
		c0-2.02-0.658-3.037-1.971-3.037c-0.541,0-1.28,0.18-2.216,0.525c-0.148,0.065-0.377,0.147-0.674,0.23l-0.426-1.445
		c0.393-0.18,0.623-0.312,0.723-0.377l4.513-2.217l4.63-2.544C198.323,140.725,198.553,140.578,198.948,140.364z M255.926,138.869
		l-6.78,12.656h-1.674l0.377-0.821c1.133-2.446,1.691-4.136,1.691-5.056c0-1.165-1.215-1.74-3.661-1.74
		c-3.743,0-6.993,1.593-9.718,4.761c-2.594,3.022-4.81,6.616-6.648,10.802c-1.856,4.186-2.774,7.715-2.774,10.571
		c0,3.53,1.625,5.286,4.859,5.286c2.758,0,5.597-1.182,8.503-3.562c2.922-2.364,5.384-5.499,7.37-9.373l1.248-2.398
		c0.065-0.131,0.213-0.41,0.426-0.821c0.345,0.607,0.525,1.232,0.525,1.873c0,2.757-2.053,6.122-6.156,10.096
		c-6.058,5.827-11.59,8.748-16.581,8.748c-4.267,0-6.402-2.397-6.402-7.206c0-4.136,1.395-8.601,4.186-13.378
		c2.79-4.778,6.484-9.079,11.113-12.887c6.189-5.105,12.23-7.65,18.122-7.65C254.35,138.771,255.007,138.804,255.926,138.869z
		 M276.987,158.011c0.443,0.903,0.674,1.69,0.674,2.397c0,3.085-2.135,6.632-6.403,10.637c-6.204,5.86-11.506,8.799-15.857,8.799
		c-3.76,0-5.63-2.133-5.63-6.402c0-4.81,1.46-9.849,4.398-15.135c2.939-5.302,6.698-9.652,11.279-13.083
		c5.581-4.17,10.555-6.255,14.921-6.255c2.528,0,3.792,0.936,3.792,2.79c0,1.215-0.607,2.676-1.822,4.401
		c-1.231,1.707-2.741,3.266-4.579,4.628c-1.69,1.264-3.858,2.414-6.468,3.465c-2.61,1.067-4.63,1.592-6.04,1.592
		c-1.51,0-2.545-0.838-3.119-2.496c1.346,0.181,2.413,0.279,3.217,0.279c3.217,0,6.173-0.919,8.881-2.758
		c2.709-1.838,4.071-3.841,4.071-5.991c0-1.526-1.001-2.298-2.987-2.298c-3.563,0-7.19,2.182-10.916,6.533
		c-2.627,3.086-4.794,6.681-6.501,10.769c-1.69,4.104-2.544,7.764-2.544,10.965c0,3.299,1.378,4.958,4.136,4.958
		c3.004,0,6.14-1.658,9.406-4.974C272.144,167.515,274.836,163.231,276.987,158.011z M311.181,172.342l0.772,1.297
		c-3.858,2.757-8.405,4.679-13.658,5.778c0.674-5.286,3.776-13.314,9.341-24.098l3.119-5.96c1.067-2.051,1.592-3.366,1.592-3.939
		c0-0.871-0.345-1.297-1.051-1.297c-1.002,0-2.889,1.116-5.663,3.364c-2.774,2.25-5.483,4.843-8.11,7.781
		c-5.45,6.091-10.013,13.412-13.706,21.931c-1.511,0.361-3.645,1.117-6.403,2.315c2.955-6.04,5.927-12.805,8.931-20.322
		c3.004-7.519,4.497-11.984,4.497-13.362c0-1.15-0.459-1.725-1.395-1.725c-0.476,0-1.526,0.246-3.135,0.723
		c-0.131,0.033-0.295,0.082-0.525,0.147l-0.295-1.542c4.497-1.281,8.552-2.725,12.18-4.334l0.623-0.279
		c0.066,0.41,0.099,0.707,0.099,0.871c0,2.84-2.102,8.93-6.304,18.22l-0.674,1.445l0.822-0.92
		c5.253-5.991,10.096-10.703,14.544-14.149c4.448-3.448,7.912-5.171,10.408-5.171c1.575,0,2.364,0.803,2.364,2.396
		c0,1.676-2.102,6.6-6.304,14.774c-5.04,9.751-7.552,15.235-7.552,16.45c0,0.936,0.427,1.395,1.297,1.395
		c0.969,0,2.282-0.525,3.94-1.592L311.181,172.342z M343.88,139.297l-0.623,1.444h-6.78l-0.393,0.822
		c-0.607,1.28-2.25,5.038-4.942,11.244c-1.1,2.544-2.626,6.04-4.612,10.49c-2.348,5.204-3.513,8.486-3.513,9.865
		s0.705,2.069,2.118,2.069c1.69,0,4.022-1.002,6.96-2.988l0.772,1.248c-1.922,1.477-4.121,2.741-6.583,3.76
		c-2.479,1.034-4.514,1.542-6.107,1.542c-2.413,0-3.612-0.952-3.612-2.839c0-1.347,1.346-5.122,4.038-11.344l5.007-11.408
		c2.791-6.452,4.399-10.228,4.86-11.359l0.475-1.101h-6.302l0.672-1.444h0.625c2.757,0,4.612-0.427,5.564-1.297
		c0.936-0.87,2.233-3.299,3.874-7.304c0.476,0.032,0.789,0.049,0.953,0.049c1.543,0,3.069-0.197,4.563-0.574
		c-0.345,0.919-0.969,2.446-1.871,4.563l-1.445,3.464l-0.475,1.1h6.777V139.297z M363.399,158.011
		c0.443,0.903,0.672,1.69,0.672,2.397c0,3.085-2.133,6.632-6.402,10.637c-6.206,5.86-11.508,8.799-15.858,8.799
		c-3.759,0-5.63-2.133-5.63-6.402c0-4.81,1.461-9.849,4.399-15.135c2.938-5.302,6.698-9.652,11.277-13.083
		c5.581-4.17,10.556-6.255,14.922-6.255c2.528,0,3.792,0.936,3.792,2.79c0,1.215-0.607,2.676-1.822,4.401
		c-1.231,1.707-2.741,3.266-4.579,4.628c-1.691,1.264-3.858,2.414-6.468,3.465c-2.61,1.067-4.63,1.592-6.042,1.592
		c-1.51,0-2.544-0.838-3.118-2.496c1.346,0.181,2.413,0.279,3.217,0.279c3.217,0,6.171-0.919,8.881-2.758
		c2.709-1.838,4.071-3.841,4.071-5.991c0-1.526-1.002-2.298-2.987-2.298c-3.563,0-7.19,2.182-10.917,6.533
		c-2.626,3.086-4.792,6.681-6.5,10.769c-1.691,4.104-2.545,7.764-2.545,10.965c0,3.299,1.379,4.958,4.137,4.958
		c3.004,0,6.14-1.658,9.406-4.974C358.556,167.515,361.248,163.231,363.399,158.011z M398.364,139.543l-1.74,4.859
		c-1.215-0.245-2.282-0.377-3.217-0.377c-3.727,0-7.699,2.856-11.934,8.552c-1.987,2.725-3.694,5.696-5.122,8.898
		c-1.428,3.217-3.186,8.093-5.302,14.675l-0.543,1.625c-2.084,0.461-4.071,1.002-5.958,1.642l0.525-1.445l4.235-11.262
		c4.005-10.834,6.007-17.22,6.007-19.14c0-1.001-0.426-1.493-1.296-1.493c-0.476,0-1.56,0.426-3.217,1.297l-0.625-1.478
		c4.481-2.184,8.503-4.612,12.065-7.271c0.132,0.574,0.199,1.116,0.199,1.592c0,2.462-1.101,6.582-3.317,12.36l1.149-1.346
		c7.47-8.208,12.772-12.311,15.874-12.311C396.821,138.92,397.559,139.133,398.364,139.543z"/>
	<path id="sc" fill="#FFFFFF" d="M370.879,217.364v1.403c0.694,0.056,1.253,0.134,1.68,0.247c0.417,0.113,0.736,0.304,0.949,0.574
		c0.212,0.269,0.347,0.672,0.417,1.204c0.071,0.531,0.107,1.245,0.101,2.139v16.152c0.007,0.885-0.029,1.595-0.107,2.126
		c-0.078,0.539-0.234,0.942-0.461,1.219c-0.233,0.277-0.573,0.467-1.027,0.581c-0.454,0.113-1.056,0.199-1.807,0.241v1.403h9.521
		c2.388,0.007,4.534-0.27,6.455-0.836c1.912-0.56,3.577-1.445,4.98-2.65c0.942-0.794,1.75-1.728,2.437-2.806
		c0.687-1.076,1.211-2.316,1.587-3.711c0.376-1.396,0.56-2.962,0.566-4.705c-0.007-1.289-0.148-2.487-0.431-3.577
		c-0.283-1.098-0.666-2.09-1.147-2.975s-1.035-1.665-1.652-2.331c-1.211-1.31-2.734-2.253-4.575-2.842
		c-1.842-0.58-4.01-0.871-6.518-0.856L370.879,217.364L370.879,217.364z M379.464,221.613c0-0.651,0.022-1.147,0.078-1.48
		c0.057-0.34,0.156-0.568,0.306-0.688c0.14-0.113,0.375-0.212,0.687-0.29c0.319-0.085,0.744-0.135,1.268-0.135
		c1.084-0.007,2.104,0.184,3.045,0.574c0.942,0.389,1.8,1.006,2.565,1.849c0.822,0.913,1.466,2.153,1.948,3.704
		c0.475,1.559,0.723,3.408,0.731,5.561c-0.008,2.041-0.213,3.826-0.625,5.35c-0.41,1.522-0.97,2.798-1.685,3.812
		c-0.716,1.012-1.544,1.777-2.48,2.28s-1.927,0.758-2.99,0.758c-0.715,0.007-1.282-0.114-1.699-0.361
		c-0.418-0.241-0.716-0.645-0.893-1.204c-0.177-0.566-0.262-1.318-0.255-2.26v-17.47H379.464z M419.42,236.959
		c-0.27,0.786-0.532,1.466-0.794,2.039c-0.254,0.574-0.524,1.063-0.793,1.474c-0.277,0.41-0.566,0.772-0.879,1.076
		c-0.361,0.355-0.858,0.623-1.481,0.822c-0.63,0.205-1.353,0.34-2.181,0.425c-0.83,0.078-1.715,0.114-2.671,0.114
		c-0.773,0-1.424-0.007-1.969-0.029c-0.539-0.021-1.02-0.049-1.445-0.085c-0.425-0.036-0.843-0.085-1.261-0.142
		c1.572-2.827,3.131-5.618,4.676-8.366c1.537-2.749,3.081-5.477,4.619-8.19c1.544-2.713,3.089-5.426,4.647-8.139l-0.34-0.596
		h-15.089c-0.376,0.007-0.701-0.015-0.963-0.057c-0.262-0.042-0.496-0.142-0.695-0.298c-0.205-0.148-0.404-0.389-0.594-0.708h-1.105
		c-0.015,0.715-0.05,1.502-0.099,2.373c-0.057,0.871-0.114,1.779-0.177,2.734c-0.071,0.949-0.135,1.912-0.192,2.884l1.361,0.085
		c0.234-0.991,0.49-1.813,0.75-2.459c0.263-0.637,0.525-1.14,0.78-1.494c0.15-0.212,0.334-0.404,0.547-0.574
		c0.205-0.163,0.495-0.311,0.863-0.425c0.376-0.12,0.872-0.205,1.496-0.269c0.623-0.064,1.431-0.093,2.409-0.093h4.207
		c-0.814,1.403-1.678,2.92-2.599,4.542c-0.928,1.621-1.878,3.307-2.869,5.057c-0.985,1.751-1.976,3.507-2.975,5.278
		s-1.984,3.507-2.947,5.208c-0.963,1.693-1.885,3.301-2.762,4.824l0.381,0.68h20.149c0.085-0.312,0.184-0.709,0.283-1.183
		c0.106-0.482,0.213-0.999,0.326-1.566c0.107-0.566,0.213-1.141,0.319-1.715c0.106-0.573,0.205-1.118,0.291-1.621
		c0.091-0.511,0.163-0.95,0.226-1.312L419.42,236.959z M432.469,227.692c-2.834,1.388-4.463,3.231-4.888,5.526l-0.085,0.893
		c0,2.181,0.693,3.626,2.083,4.336c0-2.296,0.446-4.251,1.338-5.866c0.893-1.616,2.303-2.962,4.23-4.039
		c1.416-0.765,2.806-1.147,4.165-1.147c1.304,0,2.309,0.369,3.019,1.105c0.708,0.737,1.063,1.758,1.063,3.061
		c0,1.416-0.439,2.713-1.318,3.888c-0.879,1.177-2.132,2.197-3.763,3.061c-1.629,0.864-3.52,1.296-5.674,1.296
		c-0.964,0-1.743-0.112-2.337-0.34c0.311,1.445,1.091,2.7,2.337,3.763c1.247,1.063,2.578,1.593,3.996,1.593
		c1.388,0,2.677-0.205,3.869-0.617c1.19-0.41,2.323-1.069,3.4-1.976c1.644-1.417,3.245-3.543,4.803-6.377l2.168-3.952
		c2.182-3.883,4.577-6.561,7.184-8.034l-6.674-1.871c-1.898-0.537-3.499-0.807-4.803-0.807c-2.635,0-3.953,1.331-3.953,3.996
		c0,0.822,0.142,1.672,0.426,2.55c0.056,0.199,0,0.312-0.171,0.34c-0.169,0.057-0.283,0.015-0.34-0.127
		c-0.368-0.851-0.552-1.728-0.552-2.635c0-1.39,0.438-2.565,1.317-3.528c1.531-1.701,3.812-2.55,6.844-2.55
		c2.126,0,4.279,0.425,6.461,1.275l3.996,1.658c2.039-0.708,4.137-1.063,6.291-1.063c2.041,0,3.288,0.312,3.74,0.934
		c0.199,0.228,0.269,0.54,0.213,0.936c-0.34,1.19-2.083,1.785-5.229,1.785c-1.642,0-3.711-0.241-6.204-0.723
		c-1.219,1.048-2.324,2.635-3.317,4.761l-2.507,5.398c-3.515,7.679-8.388,11.518-14.623,11.518c-2.464,0-4.477-0.482-6.035-1.445
		c-1.87-1.161-2.99-2.861-3.358-5.101c-1.815-0.934-2.721-2.578-2.721-4.93l0.128-1.147c0.566-2.523,2.253-4.435,5.057-5.739
		c0.199-0.085,0.355-0.07,0.469,0.042C432.625,227.508,432.612,227.608,432.469,227.692z M461.373,222.634
		c1.785,0.652,3.981,0.978,6.588,0.978c1.53,0,2.295-0.255,2.295-0.765c0.085-0.765-0.964-1.147-3.145-1.147
		C464.703,221.7,462.79,222.011,461.373,222.634z M433.829,230.116c-1.247,0.964-2.16,2.16-2.741,3.592
		c-0.581,1.431-0.872,3.109-0.872,5.036c0.652,0.34,1.544,0.511,2.679,0.511c1.984,0,3.641-0.382,4.972-1.147
		c1.559-0.879,2.77-1.885,3.634-3.018c0.864-1.134,1.297-2.353,1.297-3.657c0-1.19-0.262-2.075-0.786-2.656
		c-0.524-0.581-1.396-0.871-2.615-0.871C437.499,227.905,435.644,228.641,433.829,230.116z M456.953,236.406
		c2.267-3.797,4.023-6.447,5.27-7.949l1.232-1.53c0.539-0.539,1.12-0.807,1.743-0.807h1.233c0.425,0,0.637,0.099,0.637,0.298
		c-0.028,0.113-0.049,0.191-0.064,0.233c-0.013,0.042-0.091,0.15-0.233,0.319l-4.974,7.609l-4.251,6.419
		c-0.964,1.473-1.445,2.521-1.445,3.145c0,0.425,0.199,0.638,0.596,0.638c0.539,0,1.232-0.524,2.083-1.572l0.169-0.128
		c0.283,0,0.368,0.128,0.255,0.382c-1.02,1.39-2.012,2.083-2.975,2.083c-1.276,0-1.912-0.822-1.912-2.466
		C454.318,241.917,455.195,239.694,456.953,236.406z M471.022,234.409l-4.675,6.715c-0.426,0.594-0.638,1.034-0.638,1.317
		c0,0.255,0.127,0.384,0.382,0.384c0.453,0,1.388-0.723,2.806-2.168c0.764-0.794,1.444-1.587,2.039-2.381l3.018-3.867h2.806
		l-5.143,7.651c1.162-0.426,3.712-2.396,7.651-5.909l0.723-0.085c-0.51,0.539-1.077,1.091-1.701,1.658
		c-0.623,0.566-1.346,1.175-2.168,1.828c-0.964,0.765-1.87,1.431-2.72,1.997s-1.587,0.993-2.21,1.276l-2.806,4.08
		c-1.247,1.813-2.62,3.514-4.123,5.101c-2.239,2.324-4.023,3.415-5.356,3.273c-0.539,0-0.879-0.298-1.02-0.893
		c-0.028-0.112-0.042-0.283-0.042-0.51c0-1.474,1.219-3.372,3.655-5.696c2.239-2.153,4.279-3.67,6.121-4.547l1.997-2.975
		c-1.076,1.105-1.87,1.856-2.38,2.253c-0.964,0.793-1.758,1.118-2.38,0.978c-0.766-0.228-1.149-0.766-1.149-1.616
		c0-1.701,1.445-4.321,4.336-7.863L471.022,234.409L471.022,234.409z M460.693,249.796c-1.331,1.502-2.111,2.804-2.337,3.91
		c0,0.709,0.155,1.077,0.467,1.106c0.936,0.14,3.727-3.33,8.374-10.414C465.213,245.418,463.045,247.216,460.693,249.796z
		 M494.995,243.25c-0.425,0.34-0.893,0.666-1.403,0.977c-0.368,1.304-0.75,2.381-1.147,3.231c-1.361,2.55-2.785,4.095-4.272,4.634
		c-1.488,0.539-2.635,0.446-3.442-0.277c-0.807-0.723-0.786-2.005,0.064-3.846c0.85-1.842,3.542-3.217,8.076-4.124l0.213-0.085
		c0.085-0.311,0.169-0.638,0.254-0.977c-1.048,0.934-2.124,1.359-3.231,1.275c-1.133,0-1.699-0.765-1.699-2.295l0.127-1.02
		l-2.508,2.337c-0.877,0.652-1.615,0.978-2.21,0.978c-1.048,0-1.572-0.666-1.572-1.997c0-0.625,0.169-1.304,0.51-2.041
		c-0.708,0.793-1.346,1.502-1.912,2.126c-1.473,1.275-2.523,1.912-3.145,1.912c-1.05,0-1.574-0.666-1.574-1.997
		c0-1.73,1.403-4.28,4.209-7.651h3.188c-3.628,4.364-5.442,7.055-5.442,8.076c0,0.425,0.199,0.637,0.596,0.637
		c1.105-0.425,2.848-2.181,5.228-5.27c0.369-0.68,1.219-1.828,2.55-3.442h3.188c-3.626,4.364-5.441,7.055-5.441,8.076
		c0,0.425,0.199,0.637,0.596,0.637c0.991,0,2.734-1.756,5.228-5.27l2.55-3.442h3.401l-4.251,5.61
		c-0.907,1.247-1.361,2.054-1.361,2.422c0,0.482,0.241,0.724,0.723,0.724c0.822,0,1.629-0.382,2.423-1.149
		c-0.085-0.057-0.071-0.127,0.042-0.212c0.114-0.086,0.226-0.15,0.34-0.192c0.114-0.042,0.192-0.028,0.234,0.042
		c0.042,0.071-0.022,0.234-0.192,0.49l-0.127,1.275c0.368-0.199,0.723-0.453,1.063-0.765c1.784-1.672,3.329-3.626,4.632-5.866
		l0.765-0.213C498.424,239.806,496.667,242.031,494.995,243.25z M489.554,246.31c-2.238,0.991-3.662,1.963-4.272,2.912
		c-0.609,0.949-0.765,1.686-0.467,2.21s0.807,0.68,1.53,0.469c0.723-0.213,1.417-0.547,2.083-0.999
		c0.666-0.454,1.65-1.601,2.954-3.444c0.539-0.934,0.991-1.841,1.361-2.72C491.807,245.276,490.744,245.8,489.554,246.31z
		 M504.516,234.409c-3.628,4.364-5.441,7.055-5.441,8.076c0,0.425,0.199,0.637,0.596,0.637c0.991,0,2.734-1.756,5.228-5.27
		l2.55-3.442h3.4l-4.25,5.61c-0.908,1.247-1.361,2.054-1.361,2.422c0,0.482,0.241,0.724,0.723,0.724
		c1.587,0,4.222-2.309,7.906-6.928l0.85-0.128c-1.587,2.098-3.188,3.869-4.803,5.314c-2.012,1.756-3.655,2.635-4.931,2.635
		c-1.133,0-1.699-0.765-1.699-2.295l0.127-1.02l-2.508,2.337c-0.879,0.652-1.615,0.978-2.21,0.978c-1.048,0-1.572-0.666-1.572-1.997
		c0-1.73,1.402-4.28,4.207-7.651h3.188V234.409z M514.973,238.956c-0.482,0.794-0.864,1.403-1.147,1.828
		c-0.964,1.473-1.629,2.493-1.998,3.06h-2.848l5.739-9.435h2.975l-2.337,3.91l3.102-0.085c0.68-1.048,1.544-2.267,2.593-3.655
		l2.891-0.255l-3.485,5.568l-0.765,1.106c-0.765,0.991-1.147,1.657-1.147,1.997c0.113,0.171,0.241,0.255,0.383,0.255
		c0.793,0,2.223-1.006,4.292-3.018c1.559-1.559,2.791-2.947,3.698-4.166l0.851-0.085l-1.403,1.701
		c-3.797,4.562-6.588,6.673-8.374,6.333c-0.907-0.228-1.361-0.879-1.361-1.955c0-0.625,0.482-1.715,1.445-3.273l-3.06,0.127
		L514.973,238.956z M533.548,238.021c0.114,0.029,0.297,0.044,0.552,0.044c1.191,0,2.282-0.667,3.273-1.998l0.425,0.255
		c-1.161,1.53-2.437,2.295-3.825,2.295l-0.596-0.042c-0.566,1.331-1.431,2.508-2.593,3.528c-1.388,1.304-2.804,1.955-4.25,1.955
		c-1.559,0-2.339-0.879-2.339-2.635c0-1.162,0.368-2.352,1.105-3.571c0.737-1.133,1.616-2.026,2.635-2.677
		c1.134-0.794,2.267-1.191,3.401-1.191c0.765,0,1.261,0.283,1.488,0.851c0.112,0.057,0.397,0.255,0.85,0.594
		c0.199,0.228,0.298,0.539,0.298,0.936C533.973,236.873,533.832,237.426,533.548,238.021z M526.918,243.079
		c0.112,0.171,0.425,0.228,0.934,0.171c0.993-0.312,1.969-0.964,2.933-1.956c0.851-0.85,1.545-1.813,2.083-2.89
		c-0.737-0.396-1.105-0.962-1.105-1.699c0-0.539,0.255-1.02,0.765-1.445c-1.219,0.482-2.352,1.359-3.4,2.635
		c-0.539,0.652-1.077,1.46-1.616,2.423c-0.537,0.964-0.807,1.686-0.807,2.168C526.705,242.739,526.776,242.937,526.918,243.079z
		 M533.08,237.894c0.255-0.651,0.384-1.204,0.384-1.657c0-0.482-0.171-0.752-0.511-0.809c-0.397,0.312-0.594,0.737-0.594,1.276
		C532.359,237.355,532.599,237.752,533.08,237.894z"/>
</g>
</svg>
