<?xml version="1.0" encoding="utf-8"?>
<!-- Generator: Adobe Illustrator 17.0.0, SVG Export Plug-In . SVG Version: 6.00 Build 0)  -->
<!DOCTYPE svg PUBLIC "-//W3C//DTD SVG 1.1//EN" "http://www.w3.org/Graphics/SVG/1.1/DTD/svg11.dtd">
<svg version="1.1" id="logo" xmlns="http://www.w3.org/2000/svg" xmlns:xlink="http://www.w3.org/1999/xlink" x="0px" y="0px"
	 width="537.798px" height="255.291px" viewBox="0 0 537.798 255.291" enable-background="new 0 0 537.798 255.291"
	 xml:space="preserve">
<g id="group">
	<g id="sd">
		<g>
			<path fill="#FFFFFF" d="M427.029,22.192c0.318,2.973,2.611,9.958,2.611,9.958l0.221,8.047c0,0,3.174,0.247,4.999,2.524
				c1.829,2.28,0.651,5.249,0.651,5.249s5.574,1.788,6.457,4.611c0.881,2.823,1.015,5.441,1.015,5.441s6.538,0.312,10.506,8.053
				c3.965,7.741,7.61,12.859,9.606,15.888c1.997,3.029,5.834,7.778,7.044,13.036c1.208,5.258,4.312,18.968,6.403,27.045
				c2.088,8.08,3.662,13.719,3.81,15.779c0.147,2.058-1.022,4.656-1.022,4.656s2.901,4.73,3.067,5.854
				c0.164,1.122-0.115,5.98-0.115,5.98s3.335,1.562,3.481,3.808c0.143,2.249-1.597,5.389-1.597,5.389s3.326,1.936,4.578,4.95
				c1.253,3.015,3.437,6.048,5.49,6.276c2.054,0.226,4.708-1.779,4.708-1.779s2.597,1.169,5.412,0.475
				c2.818-0.693,4.922-3.085,6.424-3.432c1.505-0.343,5.216,1.035,9.148,0.74c3.932-0.296,7.528-2.478,7.528-2.478
				s3.174,0.062,4.149-1.976c0.974-2.037,0.244-3.172,0.244-3.172s1.227-0.377,1.824-2.192c0.596-1.809,0.068-3.505,0.068-3.505
				s1.282-1.095,1.452-2.771c0.172-1.678-1.057-3.389-1.057-3.389s1.421-0.948,1.873-2.623c0.451-1.673,0.069-3.502,0.069-3.502
				s0.725-1.386,1.318-3.06c0.597-1.672-0.355-3.511-0.355-3.511s0.737-1.805,0.629-3.49c-0.11-1.685-1.89-3.825-1.89-3.825
				s1.288-1.231,1.338-3.898c0.05-2.662-1.052-3.667-1.052-3.667s0.597-1.666,0.212-3.777c-0.379-2.11-1.206-2.83-1.206-2.83
				s0.737-1.946-0.201-4.346c-0.936-2.399-1.91-2.7-1.91-2.7s0.873-1.664,0.496-4.056c-0.376-2.39-1.466-3.952-1.466-3.952
				s0.59-1.533-0.061-4.066c-0.656-2.533-1.627-3.115-1.627-3.115s0.033-1.541-0.625-3.797c-0.658-2.251-2.043-3.26-2.043-3.26
				s0.455-1.678-0.334-4.495c-0.785-2.818-1.617-3.395-1.617-3.395s0.32-1.957-0.478-4.356c-0.797-2.393-1.635-2.55-1.635-2.55
				s0.036-1.686-1.034-4.509c-1.069-2.822-2.185-3.122-2.185-3.122s0.311-1.674-0.893-4.643c-1.202-2.967-2.178-3.407-2.178-3.407
				s-0.232-2.243-1.312-4.508c-1.08-2.263-1.784-2.139-1.784-2.139s-0.524-1.83-2.017-4.664c-1.485-2.832-2.339-2.149-2.339-2.149
				s-0.778-3.374-1.709-5.916c-0.93-2.544-2.055-2.423-2.055-2.423s-0.247-1.828-1.742-4.379c-1.492-2.553-2.495-1.588-2.495-1.588
				s-0.372-2.528-2.161-4.244c-1.789-1.719-3.187-2.025-3.187-2.025s-0.388-1.548-1.883-4.099c-1.492-2.554-2.611-2.857-2.611-2.857
				s-0.811-1.693-2.867-3.838c-2.062-2.141-3.479-1.326-3.479-1.326s-1.365-1.988-3.311-2.728c-1.952-0.739-2.795-0.614-2.795-0.614
				s-0.956-1.417-2.884-3.278c-1.923-1.858-2.63-1.592-2.63-1.592s-2.762-2.295-6.404-2.507c-3.637-0.208-6.711-0.83-9.673-0.044
				c-2.954,0.785-7.052,2.389-7.052,2.389s-8.003,0.826-13.121,4.374c-5.117,3.55-5.777,8.722-5.777,8.722
				S426.312,15.591,427.029,22.192z"/>
			
				<rect x="474.682" y="141.782" transform="matrix(-0.5135 -0.8581 0.8581 -0.5135 588.1046 637.5333)" fill="#FFFFFF" width="0.196" height="20.538"/>
			
				<rect x="475.435" y="143.33" transform="matrix(-0.3947 -0.9188 0.9188 -0.3947 522.2217 650.9601)" fill="#FFFFFF" width="0.194" height="20.268"/>
			
				<rect x="466.815" y="155.926" transform="matrix(-0.9951 0.0984 -0.0984 -0.9951 967.6938 264.3184)" fill="#FFFFFF" width="21.028" height="0.195"/>
			
				<rect x="466.583" y="159.826" transform="matrix(-0.9721 -0.2347 0.2347 -0.9721 905.2739 427.5828)" fill="#FFFFFF" width="22.994" height="0.195"/>
			
				<rect x="475.072" y="144.665" transform="matrix(-0.2457 -0.9693 0.9693 -0.2457 437.6871 658.812)" fill="#FFFFFF" width="0.194" height="28.899"/>
			<polygon fill="#FFFFFF" points="461.249,162.892 492.311,172.004 492.367,171.815 461.301,162.709 			"/>
			
				<rect x="473.912" y="139.118" transform="matrix(-0.5294 -0.8484 0.8484 -0.5294 593.8168 638.5263)" fill="#FFFFFF" width="0.195" height="30.889"/>
			
				<rect x="471.507" y="129.966" transform="matrix(-0.7975 -0.6033 0.6033 -0.7975 758.2374 551.0954)" fill="#FFFFFF" width="0.191" height="36.672"/>
			
				<rect x="473.595" y="126.61" transform="matrix(-0.7809 -0.6247 0.6247 -0.7809 751.7638 557.6846)" fill="#FFFFFF" width="0.195" height="40.767"/>
			
				<rect x="461.046" y="89.854" transform="matrix(-0.6172 -0.7868 0.7868 -0.6172 663.4341 532.0472)" fill="#FFFFFF" width="0.195" height="29.565"/>
			
				<rect x="457.364" y="73.673" transform="matrix(-0.9233 -0.3841 0.3841 -0.9233 843.4032 358.129)" fill="#FFFFFF" width="0.196" height="42.348"/>
			
				<rect x="449.982" y="57.902" transform="matrix(-0.9991 -0.0413 0.0413 -0.9991 896.2308 190.0131)" fill="#FFFFFF" width="0.192" height="55.692"/>
			<path fill="#FFFFFF" d="M466.434,157.004l-4.717,2.061l0.082,0.564l-6.897,3.98l-1.665-1.155l-1.175-1.985
				c0,0-0.919-0.858-1.564-1.432c-0.641-0.574-0.453-0.568-0.453-0.568s0.109-0.933,0.119-1.494c0.005-0.29-0.382-0.839-0.765-1.301
				c0.758-1.101,1.951-2.042,1.951-2.042s1.249,0.588,1.906,0.645c0.654,0.06,1.091-0.916,1.194-1.378
				c0.102-0.466,0.675-1.112,0.778-1.623c0.106-0.515,0.073-1.216,0.308-1.489c0.24-0.278,0.799-0.221,0.903-0.639
				c0.099-0.417-0.208-1.5-0.208-1.5s0.766-0.778,0.817-1.106c0.054-0.326-0.261-1.128-0.261-1.128s0.353-1.302-0.098-2.057
				c-0.453-0.757-0.021-1.404-0.708-2.071c-0.692-0.667-3.02-3.918-8.1-2.283c-1.756,0.566-2.812,2.471-3.323,3.405
				c-0.238-0.791-0.373-1.411-0.373-1.411s-1.318-4.512-1.699-6.617c-0.046-0.265-0.11-0.531-0.196-0.797
				c2.393-6.17,5.331-13.826,6.722-17.711c0.581-1.616,0.549-1.826,0.549-1.826l0.064-1.166l-4.606,6.267l0.549,0.711l-4.305,11.622
				c-0.173-0.241-0.36-0.455-0.555-0.635l0.244-1.427l4.244-13.089l0.098-0.373l32.454-33.832l-0.143-0.132L445.4,115.563
				l0.124-0.469l15.35-49.039l-0.187-0.058l-15.538,49.635c-0.093,0.167-0.199,0.343-0.32,0.517l-1.541-52.774
				c2.827-1.297,7.247-3.329,7.247-3.329c0.045-0.016,0.066-0.062,0.054-0.112c-0.009-0.041-1.093-4.443-5.312-9.254
				c-4.251-4.84-9.663-2.853-9.716-2.834c-0.048,0.02-0.075,0.07-0.065,0.115c0,0.003,5.291,16.328,5.291,16.328
				c-0.003,0.003,1.703,46.847,1.928,52.976l-0.323,0.683l-8.409,10.187c-0.496,0.066-1.132,0.302-1.304,0.371
				c-0.265,0.103-0.319,0.568-0.319,0.568s-0.532-0.07-0.834,0.053c-0.303,0.123-2.114,1.293-2.353,1.816
				c-0.237,0.519,0.017,3.074-0.118,3.588c-0.135,0.51-1.392,1.682-2.594,2.875c-1.203,1.186-3.838,3.437-4.911,4.28
				c-1.073,0.848-1.693,2.836-2.438,3.976c-0.74,1.137-0.295,2.826,0.167,3.151c0.461,0.326,1.108,0.863,2.133,0.974
				c1.024,0.116,1.768,0.597,1.768,0.597l-0.671,0.735l-4.315,0.664l-2.459,1.543l-1.253,2.033l0.553,0.476l-0.761,0.548
				l-2.141-0.323l1.388,0.683c0,0-2.552,1.354-4.477,4.307c-1.927,2.954-2.149,4.82-3.014,6.113c-0.867,1.296-3.072,4.15-3.072,4.15
				s-1.019-0.302-2.057,0.146c-1.04,0.453-1.207,1.799-1.207,1.799s1.194-0.443,2.435-0.622c1.241-0.185,2.258,0.196,2.258,0.196
				s-3.841-0.948-9.189,3.383c-3.311,2.679-7.811,6.928-11.224,10.163c-4.841,4.585-6.272,3.466-7.524,4.226
				c-1.247,0.762-1.57,2.05-2.148,2.88c-0.574,0.827-1.613,1.918-1.887,2.324c-0.271,0.408-1.063,2.708-1.068,2.978
				c-0.005,0.261-0.425,0.697-0.21,1.191c0.218,0.491,0.443,0.38,0.443,0.38s-0.76,0.737-0.625,1.372
				c0.136,0.639,0.589,0.54,0.589,0.54s-0.683,0.476-0.58,0.998c0.103,0.528,0.586,0.572,0.586,0.572s-0.785,0.212-0.614,0.778
				c0.179,0.561,0.933,0.6,0.933,0.6s-0.776,0.933,0.073,1.695c0.847,0.77,2.145-0.741,2.415-1.034
				c0.269-0.298,1.563-1.657,2.212-2.169c0.643-0.507,1.275-2.295,2.008-3.329c0.729-1.035,2.427-3.588,3.834-4.868
				c0.674-0.61,1.454-1.171,2.151-1.98c0.756-0.881,1.432-2.018,2.246-2.728c1.56-1.354,6.37-4.027,9.006-5.066
				c2.636-1.036,5.425-4.053,6.666-4.365c1.243-0.311,3.908-0.932,5.532-1.541c1.62-0.606,2.116-1.192,2.116-1.192
				s0.326,0.527,0.895,0.201c0.57-0.322,1.153-1.326,1.53-1.541c0.376-0.22,1.399-0.946,1.399-0.946s0.098-0.855,0.508-0.43
				c0.414,0.427,1.407,2.274,2.049,3.033c0.638,0.76,2.534,1.825,2.957,1.877c0.418,0.054,0.832,0.528,1.199,0.77
				c0.369,0.244,0.936-0.074,0.936-0.074s0.496,0.897,1.375,1.289c0.884,0.388,1.776,0.173,1.776,0.173l1.253,0.491l1.543-0.111
				c0,0,0.985-0.263,2.118-0.662c1.129-0.398,3.727-1.845,6.948-1.689c3.225,0.155,4.947,0.515,4.947,0.515s-4.149-0.643-7.198-0.09
				c-3.048,0.548-4.521,1.83-6.022,2.127c-1.503,0.298-4.69,0.662-5.385,0.552c-0.704-0.105-0.688-0.761-1.391-0.68
				c-0.703,0.079-1.5,0.253-1.964,0.011c-0.461-0.244-0.572-1.882-1.787-1.998c-1.21-0.116-1.969,0.348-2.075,0.908
				c-0.105,0.557-0.065,1.154-0.065,1.154s-0.61,0.081-0.813,0.919c-0.205,0.84-1.153,1.476-1.121,2.458
				c0.026,0.979,0.496,0.897,0.496,0.897s-0.29,0.462,0.128,0.752c0.412,0.287,1.206,0.442,1.955,0.222
				c0.752-0.22,1.69-0.341,1.877-0.291c0.185,0.05,1.067,0.394,1.534,0.451c0.467,0.054,1.227-0.63,2.583-0.7
				c1.357-0.068,3.56-0.258,7.14,0.651c3.585,0.911,6.93,1.908,9.46,1.489c2.53-0.416,4.468-1.316,5.684-1.435
				c1.218-0.116,3.412-0.028,4.5-0.757c1.095-0.724,1.906-1.83,1.394-4.366c-0.185-0.911-0.361-1.427-0.54-1.743
				c1.12,0.441,2.181,0.737,2.851,0.717c1.822-0.054,9.612,2.442,9.612,2.442l0.512,0.016c0,0,1.427,0.308,2.43,0.168
				c1.001-0.139,1.298-0.719,1.298-0.719s0.971-0.176,1.359-0.646c0.393-0.474-0.126-0.639-0.126-0.639s0.418-0.372,0.508-0.697
				c0.086-0.326-0.356-0.679-0.356-0.679s0.426-0.51,0.279-0.88c-0.142-0.375-0.949-0.152-0.949-0.152s0.435-0.705,0.265-1.113
				c-0.172-0.406-0.925-0.614-0.925-0.614s-0.021-0.169,0.001-0.565c0.026-0.396-0.304-1.044-0.74-0.905
				c-0.09,0.028-0.163,0.101-0.224,0.192l-0.269-0.504l-0.713-0.735l-5.453-9.569c0.404-0.22-0.168-0.969-0.168-0.969l2.312-3.603
				l-1.034,0.163l-2.206,3.047l-2.962-1.555l12.293-7.335L466.434,157.004z M435.673,47.868c0.561-0.187,5.522-1.542,9.458,2.945
				c3.998,4.55,5.146,8.686,5.25,9.091c-0.097,0.046-4.34,1.994-7.097,3.257l-0.152-5.234l-0.197,0.003l0.159,5.323
				c-1.203,0.552-2.079,0.953-2.12,0.974C440.859,63.871,435.98,48.818,435.673,47.868z M440.987,64.433
				c0.005-0.001,0.888-0.406,2.107-0.97l1.55,52.939c-0.131,0.172-0.273,0.337-0.421,0.484c-0.61,0.588-1.089,0.478-1.31,0.361
				C442.687,111.126,440.998,64.761,440.987,64.433z M441.757,175.359c-3.775-2.262-6.337-2.347-6.337-2.347l1.691-1.081
				c0,0,0.245-0.234,1.366-0.695c1.124-0.451,2.488-0.985,3.212-1.367c0.005-0.003,0.015-0.005,0.017-0.011
				c0.281,1.605,1.073,3.534,1.519,4.206c0.443,0.67,0.765,2.287,1.309,3.348C443.763,177.073,442.588,175.861,441.757,175.359z
				 M442.164,147.614c-0.052-0.013-0.09-0.024-0.14-0.034c-0.565-0.75-1.292-1.649-1.71-2.174c-0.688-0.852-1.632-2.55-1.632-2.55
				s0.037-0.101,0.103-0.266c0.88-0.425,1.795-0.425,2.679,1.161c0.586,1.047,1.237,2.696,1.935,4.378
				C443.083,147.939,442.687,147.745,442.164,147.614z M439.058,130.384c-1.412,0.675-0.45,3.282-0.45,3.282l-3.29,1.694
				c0,0-0.704,6.089-0.21,7.663l-0.214-0.105c0,0-1.404,0.114-2.245,0.098c-0.361-0.008-0.647,0.304-0.86,0.656
				c-2.308-0.228-2.918-0.368-3.8-0.304c-1.031,0.074-0.455,3.067-3.187,4.326c2.468-1.69,2.365-5.668,3.625-7.217
				c1.261-1.55,4.869-4.91,5.653-5.426c0.782-0.508,0.556-2.005,0.709-2.202c0.154-0.199,0.682-1.427,0.476-1.685
				c-0.209-0.262-0.615-0.778-0.615-0.778s0.116-1.052,0.053-1.706l8.007-10.425l-1.832,10.102l-0.96,1.92
				C439.461,129.934,439.525,130.162,439.058,130.384l19.153,35.997c0,0,0.143,0.744,0.707,0.847l0.123,0.303l5.717,10.035
				l0.034,1.904c-0.365,0.27-0.773,0.596-0.884,0.787c-0.222,0.389-0.404,1.214-0.404,1.214c-0.247,0.84-2.501-0.337-3.775-0.717
				c-1.273-0.381-5.125-2.302-6.599-3.1c-1.473-0.799-2.439-0.944-2.439-0.944s0.47-2.381-0.909-6.222
				c-0.306-0.846-0.668-2.414-0.805-3.018l0.514,0.238l1.232-0.817l1.13-0.447l1.498-0.155l1.129-0.541l3.73,0.631L439.058,130.384z
				"/>
			<path fill="#FFFFFF" d="M432.58,82.907c3.569,16.442,16.649,30.484,16.782,30.625l0.139-0.134
				c-0.128-0.142-13.173-14.145-16.731-30.533c-3.563-16.407-2.62-50.978-2.611-51.327l-0.195-0.004
				C429.954,31.88,429.01,66.479,432.58,82.907z"/>
		</g>
		<path fill="#FFFFFF" d="M119.552,65.016C407.528,3.137,534.708,207.033,534.708,207.033S407.984,0.788,110.953,57.253
			C-41.519,86.237-40.623,222.225,137.141,248.98c133.15,20.042,234.683-41.343,234.683-41.343s-93.486,53.657-223.428,36.049
			C-25.085,220.18-28.272,96.78,119.552,65.016z"/>
	</g>
	<g>
		<path fill="#FFFFFF" d="M66.631,128.753c-9.807,4.806-15.446,11.18-16.916,19.123l-0.294,3.09c0,7.553,2.405,12.554,7.208,15.004
			c0-7.943,1.545-14.71,4.634-20.299c3.089-5.59,7.966-10.247,14.637-13.975c4.902-2.648,9.708-3.971,14.416-3.971
			c4.51,0,7.992,1.275,10.444,3.825c2.45,2.551,3.678,6.082,3.678,10.591c0,4.905-1.522,9.392-4.56,13.459
			c-3.041,4.071-7.38,7.602-13.019,10.592c-5.64,2.992-12.186,4.486-19.638,4.486c-3.335,0-6.031-0.391-8.09-1.177
			c1.078,5.001,3.774,9.341,8.09,13.018c4.315,3.678,8.923,5.516,13.828,5.516c4.804,0,9.267-0.709,13.386-2.133
			c4.118-1.42,8.04-3.701,11.768-6.84c5.686-4.903,11.228-12.258,16.622-22.065l7.502-13.68
			c7.551-13.434,15.837-22.702,24.86-27.802l-23.095-6.473c-6.571-1.862-12.113-2.795-16.622-2.795c-9.12,0-13.68,4.61-13.68,13.827
			c0,2.845,0.49,5.788,1.471,8.826c0.196,0.687,0,1.081-0.588,1.177c-0.588,0.198-0.981,0.051-1.177-0.441
			c-1.276-2.942-1.912-5.981-1.912-9.12c0-4.804,1.519-8.875,4.56-12.209c5.295-5.884,13.189-8.826,23.683-8.826
			c7.355,0,14.807,1.471,22.36,4.413l13.827,5.737c7.061-2.45,14.317-3.678,21.771-3.678c7.061,0,11.375,1.08,12.945,3.236
			c0.685,0.786,0.931,1.864,0.735,3.237c-1.177,4.118-7.208,6.178-18.093,6.178c-5.689,0-12.849-0.832-21.477-2.501
			c-4.218,3.629-8.042,9.12-11.474,16.475l-8.679,18.682c-12.161,26.577-29.03,39.865-50.603,39.865
			c-8.532,0-15.496-1.669-20.888-5.001c-6.473-4.02-10.347-9.904-11.621-17.653c-6.275-3.236-9.414-8.922-9.414-17.064l0.441-3.971
			c1.963-8.728,7.797-15.347,17.505-19.858c0.685-0.294,1.225-0.244,1.618,0.148C67.169,128.117,67.12,128.459,66.631,128.753z
			 M71.338,137.138c-4.316,3.335-7.479,7.479-9.488,12.429c-2.011,4.954-3.016,10.764-3.016,17.432
			c2.255,1.177,5.344,1.766,9.267,1.766c6.863,0,12.6-1.325,17.211-3.973c5.392-3.038,9.584-6.521,12.577-10.444
			c2.991-3.922,4.487-8.14,4.487-12.651c0-4.118-0.908-7.182-2.722-9.193c-1.816-2.008-4.831-3.016-9.046-3.016
			C84.037,129.489,77.613,132.04,71.338,137.138z M166.66,111.249c6.178,2.257,13.777,3.383,22.801,3.383
			c5.295,0,7.943-0.882,7.943-2.648c0.294-2.648-3.335-3.972-10.886-3.972C178.182,108.012,171.563,109.093,166.66,111.249z"/>
		<path fill="#FFFFFF" d="M175.633,154.496l2.059-2.501h11.915l-17.652,26.16c-1.081,1.577-1.618,2.809-1.618,3.696
			c0,0.492,0.294,0.837,0.882,1.034c5.393,0.687,15.395-7.893,30.009-25.743h2.942l-4.707,5.62
			c-1.963,2.463-4.118,4.879-6.472,7.245c-1.864,1.875-4.071,3.995-6.62,6.359c-7.355,6.505-12.897,9.511-16.622,9.019
			c-3.629-0.598-5.443-2.737-5.443-6.419l0.441-3.584c-1.57,1.57-3.016,3.016-4.339,4.339c-1.324,1.324-2.28,2.184-2.869,2.575
			c-2.648,2.059-5.001,3.089-7.061,3.089c-4.509,0-6.767-3.039-6.767-9.12c0-6.275,2.453-12.012,7.355-17.211
			c5.59-5.686,11.67-8.532,18.241-8.532C172.051,150.525,174.162,151.848,175.633,154.496z M151.214,180.533
			c0,1.177,0.492,1.766,1.471,1.766c2.845,0,7.307-3.973,13.386-11.916c1.078-1.177,2.795-3.825,5.148-7.944
			c1.177-1.861,1.912-3.872,2.207-6.031c0.294-1.666-0.147-2.597-1.324-2.795c-3.629-0.685-8.017,2.648-13.166,10.003
			C153.788,170.971,151.214,176.612,151.214,180.533z"/>
		<path fill="#FFFFFF" d="M217.702,182.593c2.744,0,7.698-3.48,14.857-10.445c5.392-5.391,9.658-10.198,12.798-14.415l2.942-0.295
			l-4.854,5.884c-13.143,15.791-22.801,23.095-28.979,21.918c-3.14-0.783-4.707-3.039-4.707-6.767c0-3.725,1.471-7.598,4.413-11.62
			l5.443-6.178c3.627-3.825,5.392-6.08,5.296-6.767c0-0.783-0.588-1.177-1.765-1.177c-4.413,0-11.132,6.326-20.153,18.977
			c-0.097,0.098-0.637,0.883-1.618,2.354c-3.333,5.1-5.638,8.63-6.914,10.591h-9.856l19.859-32.656h10.297l-2.795,5.884
			c6.668-5.491,11.423-7.893,14.269-7.208c2.843,0.588,4.266,2.648,4.266,6.178c0,3.531-3.384,9.513-10.15,17.946
			c-2.648,3.434-3.971,5.737-3.971,6.914C216.769,182.299,217.211,182.593,217.702,182.593z"/>
		<path fill="#FFFFFF" d="M306.794,109.63l-42.903,64.43c-1.963,3.091-2.942,5.383-2.942,6.877c0,1.496,0.735,2.243,2.206,2.243
			c4.707,0,14.071-8.286,28.096-24.86l2.795-0.147l-15.593,17.009c-7.847,7.589-13.779,10.991-17.799,10.205
			c-2.158-0.398-3.678-1.892-4.56-4.482c-0.099-0.398-0.198-1.294-0.295-2.69c-0.099-1.392-0.147-2.19-0.147-2.39
			c-3.921,3.924-6.226,6.131-6.914,6.62c-2.549,1.963-4.854,2.942-6.914,2.942c-4.804,0-7.208-3.124-7.208-9.375
			c0-5.469,2.197-10.79,6.589-15.965c5.075-6.249,10.932-9.375,17.569-9.375c3.806,0,6.151,1.537,7.029,4.61l30.103-45.686
			L306.794,109.63z M242.709,180.686c0.099,0.977,0.786,1.464,2.059,1.464c3.629,0,8.776-5.804,15.446-17.413
			c2.354-4.293,3.531-7.318,3.531-9.073c0-0.879-0.294-1.414-0.882-1.609c-2.648-0.785-6.866,2.677-12.651,10.386
			S241.925,177.566,242.709,180.686z"/>
		<path fill="#FFFFFF" d="M292.133,182.593c2.747,0,6.278-1.519,10.592-4.56c6.374-4.314,13.092-10.933,20.152-19.858l2.943-0.294
			c-14.515,18.339-26.577,27.508-36.186,27.508c-5.59,0-8.386-3.284-8.386-9.856c0-4.707,1.765-9.268,5.296-13.68
			c2.942-3.825,6.866-6.863,11.769-9.121c3.136-1.567,5.883-2.353,8.237-2.353c0.785,0,1.96,0.098,3.531,0.294
			c1.568,0.198,2.649,1.422,3.237,3.678c0.294,0.882,0.441,1.669,0.441,2.354c0,4.217-3.776,7.649-11.327,10.297
			c-0.786,0.294-2.306,0.662-4.56,1.103c-2.254,0.442-3.774,0.713-4.559,0.81c-3.039,4.217-4.562,7.796-4.562,10.738
			C288.749,181.614,289.879,182.593,292.133,182.593z M294.341,166.706c1.863,0.393,4.951-0.736,9.267-3.384
			c4.314-2.648,6.472-5.491,6.472-8.532c0-0.685-0.294-1.126-0.883-1.324c-2.648-0.49-5.737,1.275-9.267,5.295
			C297.479,161.704,295.616,164.352,294.341,166.706z"/>
		<path fill="#FFFFFF" d="M351.561,159.644c7.55-6.08,12.552-9.12,15.004-9.12c4.12,0,6.178,2.013,6.178,6.038
			c0,3.733-3.335,9.477-10.003,17.232c-3.139,3.729-4.707,6.185-4.707,7.362c0,1.08,0.589,1.62,1.765,1.62
			c3.138,0,8.239-3.388,15.299-10.166c2.354-2.256,4.781-4.689,7.281-7.29c2.502-2.602,4.535-4.935,6.105-6.999l2.795-0.294
			c-16.379,19.344-28.096,28.427-35.158,27.25c-2.157-0.39-3.678-1.618-4.559-3.682l-0.442-2.797c0-3.337,1.421-6.872,4.267-10.603
			l7.796-9.721c1.568-1.866,2.354-3.388,2.354-4.565c0-0.686-0.345-1.031-1.03-1.031c-2.454,0-9.273,6.866-20.461,20.593
			l-8.979,11.18l-10.598-0.018l17.845-26.152c1.655-2.556,2.336-4.23,2.041-5.016c-0.198-0.49-0.589-0.685-1.177-0.588
			c-0.588,0.098-1.423,0.539-2.501,1.324c-1.08,0.786-2.428,1.816-4.046,3.089c-1.618,1.276-3.065,2.501-4.339,3.678
			c-1.96,1.766-5.394,6.131-10.3,13.092l-7.355,10.591l-10.297-0.002l21.627-32.654h10.15l-3.384,6.325l6.179-4.854
			c2.842-1.96,5.295-2.942,7.355-2.942c3.823,0,5.737,2.011,5.737,6.031L351.561,159.644z"/>
	</g>
	<g>
		<path fill="#FFFFFF" d="M415.954,211.336l1.82-2.21h10.53l-15.6,23.12c-0.955,1.394-1.43,2.482-1.43,3.267
			c0,0.435,0.26,0.739,0.78,0.914c4.766,0.607,13.605-6.976,26.52-22.75h2.6l-4.16,4.966c-1.734,2.177-3.64,4.312-5.72,6.402
			c-1.647,1.658-3.598,3.53-5.85,5.621c-6.5,5.749-11.397,8.405-14.69,7.971c-3.208-0.528-4.81-2.419-4.81-5.673l0.39-3.167
			c-1.388,1.388-2.665,2.665-3.835,3.835c-1.17,1.17-2.015,1.93-2.535,2.275c-2.34,1.82-4.42,2.73-6.24,2.73
			c-3.985,0-5.98-2.686-5.98-8.06c0-5.545,2.167-10.615,6.5-15.21c4.94-5.025,10.313-7.54,16.12-7.54
			C412.789,207.826,414.653,208.996,415.954,211.336z M394.374,234.346c0,1.04,0.435,1.56,1.3,1.56c2.515,0,6.458-3.51,11.83-10.53
			c0.953-1.04,2.47-3.38,4.55-7.02c1.04-1.645,1.69-3.422,1.95-5.33c0.26-1.473-0.13-2.295-1.17-2.47
			c-3.208-0.605-7.085,2.34-11.635,8.84C396.649,225.896,394.374,230.881,394.374,234.346z"/>
		<path fill="#FFFFFF" d="M439.092,236.166c2.427,0,5.547-1.343,9.36-4.03c5.633-3.813,11.57-9.663,17.81-17.55l2.6-0.26
			c-12.827,16.207-23.487,24.31-31.98,24.31c-4.94,0-7.41-2.903-7.41-8.71c0-4.16,1.56-8.19,4.68-12.09
			c2.6-3.38,6.067-6.065,10.4-8.06c2.772-1.385,5.2-2.08,7.28-2.08c0.693,0,1.733,0.087,3.12,0.26c1.385,0.175,2.34,1.257,2.86,3.25
			c0.26,0.78,0.39,1.475,0.39,2.08c0,3.727-3.337,6.76-10.01,9.1c-0.695,0.26-2.038,0.585-4.03,0.975
			c-1.993,0.39-3.335,0.63-4.03,0.715c-2.686,3.727-4.03,6.89-4.03,9.49C436.102,235.301,437.1,236.166,439.092,236.166z
			 M441.043,222.126c1.647,0.348,4.375-0.65,8.19-2.99c3.812-2.34,5.72-4.853,5.72-7.54c0-0.605-0.26-0.996-0.78-1.17
			c-2.34-0.433-5.07,1.127-8.19,4.68C443.817,217.706,442.17,220.046,441.043,222.126z"/>
		<path fill="#FFFFFF" d="M471.462,209.386c1.56-1.04,3.335-1.56,5.33-1.56c1.905,0,3.53,0.459,4.875,1.377
			c1.342,0.918,2.015,2.166,2.015,3.74c0,2.188-2.651,6.561-7.952,13.12c-3.711,4.723-5.568,7.827-5.568,9.313
			c0,0.438,0.175,0.788,0.52,1.05h0.78c2.425,0,6.845-3.155,13.26-9.468c4.68-4.733,8.493-9.204,11.44-13.413h2.6
			c-2.688,3.467-4.94,6.24-6.76,8.32c-2.08,2.427-4.465,4.897-7.15,7.41c-3.294,3.208-6.285,5.57-8.97,7.085
			c-2.686,1.518-5.07,2.275-7.15,2.275c-3.64,0-5.46-2.123-5.46-6.37c0-3.64,2.701-8.535,8.103-14.69
			c2.744-2.686,4.117-4.723,4.117-6.11c0-0.605-0.252-0.91-0.755-0.91c-0.504,0-1.595,0.65-3.274,1.95l-3.51,3.12l-2.47-0.65
			l1.17-1.43c-0.642,0.175-1.085,0.26-1.329,0.26c-1.125,0-1.81-0.595-2.051-1.79c-0.346-1.357,0.39-2.673,2.21-3.949
			c1.127-0.768,2.34-1.064,3.64-0.892C470.681,207.176,471.462,207.913,471.462,209.386z M464.962,211.726
			c0,0.175,0.305,0.347,0.91,0.52c0.955,0,1.908-0.433,2.86-1.3c0.607-0.52,0.91-1.04,0.91-1.56s-0.303-0.78-0.91-0.78
			c-0.866,0-1.755,0.37-2.665,1.105C465.156,210.448,464.789,211.12,464.962,211.726z"/>
		<path fill="#FFFFFF" d="M516.181,220.176c0.345,0.087,0.91,0.13,1.69,0.13c3.64,0,6.975-2.036,10.01-6.11l1.3,0.78
			c-3.486,4.68-7.311,7.02-11.475,7.02h-1.786c-1.751,4.042-4.418,7.611-8.003,10.707c-4.286,3.957-8.659,5.934-13.12,5.934
			c-4.81,0-7.217-2.686-7.217-8.06c0-3.553,1.127-7.193,3.38-10.92c2.255-3.465,4.94-6.195,8.06-8.19
			c3.467-2.425,6.933-3.64,10.4-3.64c2.34,0,3.855,0.867,4.55,2.6c0.346,0.174,1.213,0.78,2.6,1.82
			c0.605,0.695,0.91,1.647,0.91,2.86C517.481,216.666,517.047,218.356,516.181,220.176z M495.905,235.646
			c0.35,0.52,1.311,0.695,2.88,0.52c3.055-0.946,6.063-2.929,9.031-5.945c2.618-2.584,4.757-5.513,6.415-8.787
			c-2.427-1.223-3.64-2.972-3.64-5.247c0-1.662,0.798-3.148,2.395-4.46c-3.711,1.475-7.162,4.16-10.355,8.06
			c-1.639,1.995-3.278,4.465-4.919,7.41c-1.639,2.947-2.46,5.157-2.46,6.63C495.251,234.606,495.47,235.213,495.905,235.646z
			 M514.84,219.786c0.719-1.993,1.081-3.683,1.081-5.07c0-1.473-0.564-2.295-1.69-2.47c-1.127,0.955-1.69,2.255-1.69,3.9
			C512.541,218.14,513.307,219.353,514.84,219.786z"/>
	</g>
</g>
</svg>
