<?xml version="1.0" encoding="utf-8"?>
<!-- Generator: Adobe Illustrator 17.0.0, SVG Export Plug-In . SVG Version: 6.00 Build 0)  -->
<!DOCTYPE svg PUBLIC "-//W3C//DTD SVG 1.1//EN" "http://www.w3.org/Graphics/SVG/1.1/DTD/svg11.dtd">
<svg version="1.1" id="Слой_1" xmlns="http://www.w3.org/2000/svg" xmlns:xlink="http://www.w3.org/1999/xlink" x="0px" y="0px"
	 width="518.27px" height="183.055px" viewBox="0 0 518.27 183.055" enable-background="new 0 0 518.27 183.055"
	 xml:space="preserve">
<path fill="#FFFFFF" d="M143.855,177.469c-1.431,0.006-12.439-0.732-17.281-1.476l17.56,7.038c0-0.852,0-1.398,0-1.398
	s0-1.572,0.759-1.572s1.104-0.474,1.104-1.29C145.995,177.949,145.65,177.469,143.855,177.469z"/>
<path fill="#FFFFFF" d="M21.756,177.391c1.186,0.108,2.221,0.204,3.169,0.288c8.89-2.052,16.747-4.092,16.747-4.872
	c-0.003-6.319-1.491-7.627-5.208-7.621c-3.721,0-36.448-5.568-36.448-5.568"/>
<path fill="#FFFFFF" d="M72.124,171.808c0.195-0.597,0.384-1.191,0.564-1.776c0.264-0.864,1.17-1.437,2.067-1.173
	c0.186,0.054,0.333,0.138,0.491,0.209L75.13,9.067c-0.189,1.038-0.351,2.091-0.295,3.195c0.112,2.166-3.249,2.157-3.36,0
	c-0.123-2.385,0.936-4.743,0.78-7.065c-0.447-0.261-0.78-0.717-0.78-1.383V3.375c-0.087-0.189-0.174-0.381-0.249-0.564
	c-0.411,0.258-0.87,0.477-1.308,0.714l0.129,168.496C70.594,171.451,71.47,171.409,72.124,171.808z"/>
<path fill="#FFFFFF" d="M90.521,169.555l-0.12-155.772c-0.018,0.033-0.03,0.063-0.048,0.096c-1.117,1.857-4.023,0.165-2.904-1.698
	c0.57-0.951,0.906-1.971,1.092-3.021c-0.078,0.087-0.153,0.18-0.246,0.243c-0.006,0.057-0.012,0.117-0.018,0.171
	c-0.153,1.32-1.443,1.854-2.379,1.518c-0.438,0.672-0.882,1.338-1.305,2.019c-1.143,1.836-4.053,0.147-2.904-1.698
	c0.198-0.318,0.402-0.63,0.606-0.945c-0.135-0.027-0.27-0.054-0.396-0.114c-0.453,0.366-1.044,0.468-1.566,0.36l0.12,160.581
	c0.138-0.288,0.282-0.57,0.465-0.846c1.095-1.638,3.756-0.102,2.652,1.548c-1.503,2.25-0.927,5.508-1.38,8.083
	c-0.171,0.972-0.993,1.254-1.731,1.05l0.004,1.92h4.992c1.095-1.368,2.442-2.43,3.927-3.282c-2.367-2.61-1.992-6.396-1.449-9.72
	C88.163,168.637,89.765,168.691,90.521,169.555z"/>
<path fill="#FFFFFF" d="M67.636,181.232c-0.129-1.341,0-2.61,0.258-3.852l-0.003-5.25c0,0-0.045-0.06-0.102-0.15
	c-0.027,0-0.051-0.012-0.078-0.018c0.06,0.012,0.114,0.03,0.18,0.036l-0.006-15.97c0,0-0.045-0.06-0.102-0.15
	c-0.03-0.006-0.051-0.018-0.078-0.024c0.06,0.012,0.114,0.033,0.18,0.039l-0.003-15.967c0,0-0.045-0.063-0.102-0.15
	c-0.036-0.003-0.066-0.021-0.102-0.027c0.069,0.012,0.132,0.036,0.204,0.042l-0.006-15.967c0,0-0.045-0.06-0.102-0.15
	c-0.036-0.006-0.066-0.021-0.099-0.027c0.066,0.015,0.13,0.036,0.201,0.042l-0.003-15.967c0,0-0.045-0.063-0.102-0.15
	c-0.036-0.003-0.065-0.021-0.102-0.027c0.069,0.012,0.132,0.036,0.204,0.042L67.867,91.62c0,0-0.045-0.06-0.102-0.15
	c-0.045-0.006-0.081-0.024-0.123-0.036c0.075,0.018,0.144,0.042,0.225,0.048l-0.003-15.967c0,0-0.045-0.06-0.102-0.15
	c-0.031-0.006-0.051-0.018-0.078-0.024c0.06,0.012,0.114,0.033,0.18,0.039l-0.006-15.967c0,0-0.045-0.063-0.102-0.15
	c-0.036-0.003-0.066-0.021-0.099-0.027c0.066,0.012,0.129,0.036,0.201,0.042l-0.003-15.967c0,0-0.045-0.06-0.105-0.15
	c-0.036-0.006-0.066-0.021-0.096-0.027c0.066,0.015,0.126,0.036,0.198,0.042l-0.003-15.967c0,0-0.045-0.063-0.102-0.15
	c-0.036-0.003-0.066-0.021-0.102-0.027c0.069,0.012,0.132,0.036,0.204,0.042l-0.006-15.967c0,0-0.046-0.06-0.102-0.15
	c-0.027-0.006-0.051-0.018-0.078-0.021c0.063,0.009,0.114,0.033,0.181,0.039v-6.42c-0.553,0.243-1.098,0.495-1.653,0.717
	c-0.183,0.564-0.516,1.104-0.927,1.692C65.266,6.981,65.272,7,65.275,7.017C65.272,7,65.266,6.981,65.26,6.963
	c-0.165,0.237-0.306,0.456-0.516,0.726c-0.525,0.678-1.845,0.648-2.376,0c-0.462-0.141-0.924-0.282-1.386-0.42
	c-0.708,0.162-1.323-0.078-1.716-0.522l-1.791-0.546c-0.693,0.27-1.548-0.171-1.9-0.771c-0.147-0.249-4.107-3.291-6.543-4.005
	C52.11,4.467,55.401,7.96,59.268,9.64c0.426-1.809,3.381-1.728,3.279,0.318c-0.051,1.008-0.107,1.404-0.444,2.367
	c-0.096,0.276-0.261,0.504-0.453,0.705c0.471,0.648,0.885,1.308,1.173,1.98c1.347,3.168,1.923,6,2.463,8.127
	c-0.009-0.036-0.018-0.066-0.027-0.102c-0.444-1.635-1.299-3.027-2.208-4.095C59.725,15.022,51.429,7.257,46.458,6.387l0.003,12.274
	c0,0,13.486,5.662,16.366,12.454c1.353,3.18,1.929,6.018,2.466,8.146c-0.009-0.042-0.021-0.078-0.03-0.12
	c-0.441-1.641-1.296-3.027-2.205-4.095c-3.33-3.918-11.623-11.682-16.594-12.556l0.003,12.274c0,0,13.483,5.671,16.366,12.451
	c1.338,3.15,1.914,5.964,2.451,8.085c-0.006-0.018-0.009-0.039-0.015-0.06c-0.441-1.635-1.299-3.021-2.208-4.095
	c-3.327-3.918-11.623-11.677-16.594-12.55l0.003,12.271c0,0,13.486,5.668,16.366,12.454c1.341,3.15,1.92,5.97,2.454,8.091
	c-0.006-0.024-0.011-0.045-0.018-0.069c-0.441-1.638-1.296-3.024-2.205-4.092c-3.33-3.918-11.622-11.683-16.594-12.556l0.004,12.274
	c0,0,13.483,5.67,16.366,12.451c1.35,3.186,1.932,6.03,2.469,8.158c-0.012-0.045-0.024-0.084-0.033-0.129
	c-0.442-1.638-1.299-3.024-2.208-4.092C59.744,79.438,51.448,71.673,46.477,70.8l0.003,12.27c0,0,13.486,5.668,16.369,12.454
	c1.348,3.168,1.923,6,2.46,8.128c-0.009-0.036-0.018-0.066-0.027-0.102c-0.441-1.635-1.296-3.028-2.205-4.095
	C59.748,95.534,51.453,87.77,46.482,86.9l0.003,12.274c0,0,13.483,5.661,16.366,12.454c1.347,3.168,1.926,6.006,2.463,8.133
	l-0.027-0.108c-0.441-1.641-1.296-3.027-2.208-4.095c-3.327-3.918-11.622-11.689-16.594-12.556l0.003,12.271
	c0,0,13.486,5.667,16.369,12.454c1.347,3.168,1.923,6,2.46,8.127c-0.009-0.036-0.018-0.066-0.027-0.102
	c-0.441-1.635-1.296-3.021-2.205-4.095c-3.327-3.918-11.623-11.676-16.594-12.55l0.003,12.271c0,0,13.486,5.667,16.366,12.453
	c1.347,3.168,1.926,6.006,2.463,8.133c-0.009-0.039-0.018-0.072-0.027-0.108c-0.441-1.641-1.296-3.027-2.205-4.095
	c-3.33-3.918-11.626-11.682-16.597-12.556l0.006,12.274c0,0,13.483,5.67,16.366,12.451c1.344,3.168,1.92,5.994,2.46,8.118
	c-0.012-0.03-0.018-0.06-0.024-0.09c-0.444-1.638-1.299-3.024-2.208-4.092c-3.327-3.924-11.623-11.683-16.594-12.556l0.004,12.274
	c0,0,13.486,5.664,16.366,12.451c1.128,2.646,1.713,5.058,2.19,7.02h2.835v-0.996C67.759,181.832,67.666,181.555,67.636,181.232z"/>
<path fill="#FFFFFF" d="M17.114,179.443"/>
<path fill="#FFFFFF" d="M13.762,110.041c12.643,3.345,27.893,4.455,27.893,4.455s-0.009-31.982-0.009-38.3
	c-0.003-6.324-1.491-7.626-5.208-7.626c-3.721,0-36.448-5.568-36.448-5.568s0.001,6.012,0.003,13.327
	c3.515,1.041,12.872,3.63,21.735,4.453c11.185,1.026,11.185,1.026,11.185,1.026s3.107,3.174,2.14,3.174
	c-0.918,0-27.492-3.105-35.058-4.836c0.001,4.386,0.003,8.935,0.004,12.757c3.514,1.041,12.871,3.636,21.734,4.452
	c11.186,1.032,11.186,1.032,11.186,1.032s3.105,3.174,2.139,3.174c-0.918,0-27.49-3.108-35.059-4.836C0,99.045,0,100.827,0,101.679
	C0.002,106.509,1.118,106.701,13.762,110.041z"/>
<path fill="#FFFFFF" d="M13.72,14.275c12.645,3.342,27.893,4.455,27.893,4.455L10.853,2.784C6.307,2.133,2.252,1.479-0.044,0.957
	c0.002,2.322,0.002,4.098,0.002,4.95C-0.04,10.744,1.076,10.93,13.72,14.275z"/>
<path fill="#FFFFFF" d="M28.965,6.347c-1.1-0.186-2.122-0.174-2.886,0.267c-1.579,0.915-2.383,0.027-3.606-0.273
	c-0.953-0.231-1.268-1.02-1.156-1.77C13.074,3.587,4.814,1.31,1.562,0.347l10.897,5.649c6.159,0.885,13.219,1.767,18.119,2.349
	C30.036,7.682,29.464,7.043,28.965,6.347z"/>
<path fill="#FFFFFF" d="M0.013,145.031c0,2.322,0,4.098,0.002,4.95c0,4.836,1.116,5.022,13.76,8.367
	c12.644,3.342,27.894,4.455,27.894,4.455s-0.009-31.982-0.012-38.306c0-6.324-1.488-7.62-5.207-7.62
	c-3.72,0-36.448-5.568-36.448-5.568s0.002,6.012,0.005,13.327c3.513,1.041,12.871,3.63,21.735,4.446
	c11.185,1.032,11.185,1.032,11.185,1.032s3.105,3.174,2.139,3.174c-0.918,0-27.491-3.105-35.059-4.836
	c0.002,4.386,0.003,8.928,0.005,12.756c3.513,1.041,12.872,3.636,21.735,4.452c11.185,1.032,11.185,1.032,11.185,1.032
	s3.107,3.174,2.14,3.174C34.154,149.868,7.58,146.759,0.013,145.031z"/>
<path fill="#FFFFFF" d="M108.52,6.921c-1.74-1.446-2.658-3.294-3.504-5.349c-0.285-0.687-0.066-1.221,0.348-1.572
	c-0.21,0.063-0.42,0.123-0.63,0.189c-0.819,0.612-1.788,0.831-2.766,0.756c-1.278,0.321-2.559,0.6-3.843,0.816v1.851l3.19,3.525
	h2.349l6.043,6.039l-0.003-5.835C109.285,7.33,108.859,7.203,108.52,6.921z"/>
<path fill="#FFFFFF" d="M13.748,61.734c12.643,3.342,27.894,4.452,27.894,4.452s-0.009-31.982-0.012-38.3
	c-0.003-6.324-1.491-7.626-5.207-7.623c-3.72,0.003-36.447-5.571-36.447-5.571s0.002,6.012,0.003,13.327
	c3.514,1.041,12.873,3.636,21.735,4.452c11.184,1.032,11.184,1.032,11.184,1.032s3.107,3.171,2.141,3.171
	c-0.918,0-27.492-3.108-35.059-4.833c0.002,4.386,0.003,8.929,0.003,12.757c3.513,1.041,12.872,3.63,21.735,4.446
	c11.184,1.032,11.184,1.032,11.184,1.032s3.107,3.174,2.141,3.174c-0.918,0-27.492-3.105-35.059-4.836
	c0,2.328,0.002,4.098,0.002,4.956C-0.012,58.206,1.104,58.392,13.748,61.734z"/>
<path fill="#FFFFFF" d="M123.493,173.251c-0.966-0.276-9.525-2.316-9.525-2.316l10.054,4.032
	C123.733,174.217,124.291,173.473,123.493,173.251z"/>
<path fill="#FFFFFF" d="M133.334,72.973c9.387,1.023,12.562,1.158,12.562,0.408s-1.794-2.592-1.794-3.618v-5.166
	c-0.582-0.024-1.191-0.051-1.863-0.084c-7.525-0.336-22.507-3.198-22.507-3.198v-2.589c0,0,14.842,2.589,18.361,3.063
	c1.398,0.192,3.714,0.357,6.006,0.492c0-2.844,0-5.406,0-5.406s0-1.566,0.759-1.566s1.104-0.48,1.104-1.296
	c-0.003-0.816-0.348-1.296-2.142-1.296c-1.794,0-18.637-1.152-19.534-2.04c-0.9-0.882,0.138-1.908-0.828-2.184
	c-0.966-0.27-9.526-2.316-9.526-2.316l0.006,22.777C113.937,68.953,123.946,71.953,133.334,72.973z"/>
<path fill="#FFFFFF" d="M145.904,98.331c0-0.75-1.794-2.592-1.797-3.612v-5.172c-0.582-0.024-1.191-0.048-1.863-0.081
	c-7.524-0.339-22.504-3.195-22.504-3.195l-0.004-2.592c0,0,14.845,2.586,18.364,3.063c1.398,0.189,3.715,0.357,6.006,0.489
	c-0.003-2.844-0.003-5.4-0.003-5.4s0-1.572,0.759-1.572c0.76,0,1.104-0.474,1.104-1.296c0-0.816-0.345-1.296-2.139-1.296
	s-18.637-1.152-19.534-2.04c-0.901-0.882,0.135-1.908-0.831-2.178c-0.966-0.276-9.526-2.322-9.526-2.322l0.006,22.783
	c0,0,10.011,3,19.399,4.014C142.73,98.949,145.904,99.081,145.904,98.331z"/>
<path fill="#FFFFFF" d="M133.349,122.878c9.387,1.02,12.562,1.158,12.562,0.408s-1.794-2.598-1.794-3.618c0-0.42,0-2.67-0.003-5.166
	c-0.582-0.03-1.191-0.054-1.863-0.084c-7.525-0.336-22.504-3.199-22.504-3.199v-2.592c0,0,14.842,2.586,18.361,3.066
	c1.398,0.186,3.714,0.354,6.006,0.486c0-2.838,0-5.4,0-5.4s-0.003-1.566,0.756-1.566s1.104-0.48,1.104-1.296
	c0-0.822-0.345-1.302-2.139-1.302c-1.794,0.003-18.637-1.152-19.534-2.034c-0.9-0.888,0.138-1.914-0.828-2.184
	c-0.966-0.276-9.526-2.316-9.526-2.316l0.006,22.777C113.953,118.858,123.961,121.858,133.349,122.878z"/>
<path fill="#FFFFFF" d="M99.713,32.09l2.349-0.003l6.042,6.039l-0.006-19.129c0,0-8.052-5.703-11.581-12.25l0.006,21.817
	L99.713,32.09z"/>
<path fill="#FFFFFF" d="M133.364,172.777c9.387,1.026,12.562,1.158,12.562,0.408s-1.794-2.592-1.794-3.612
	c0-0.42-0.003-2.67-0.003-5.166c-0.582-0.03-1.191-0.054-1.863-0.084c-7.524-0.342-22.504-3.201-22.504-3.201v-2.589
	c0,0,14.842,2.586,18.361,3.063c1.398,0.189,3.714,0.357,6.006,0.489c0-2.844-0.003-5.4-0.003-5.4s0-1.572,0.759-1.572
	s1.104-0.474,1.104-1.296c0-0.816-0.345-1.296-2.139-1.296s-18.637-1.152-19.534-2.04c-0.9-0.882,0.138-1.908-0.828-2.178
	c-0.966-0.276-9.529-2.316-9.529-2.316l0.009,22.778C113.968,168.763,123.976,171.763,133.364,172.777z"/>
<path fill="#FFFFFF" d="M133.357,147.827c9.388,1.02,12.562,1.158,12.562,0.408s-1.797-2.592-1.797-3.618v-5.166
	c-0.582-0.024-1.191-0.054-1.863-0.084c-7.524-0.336-22.507-3.198-22.507-3.198v-2.589c0,0,14.842,2.589,18.361,3.063
	c1.401,0.192,3.718,0.357,6.009,0.492c-0.003-2.844-0.003-5.407-0.003-5.407s0-1.566,0.759-1.566s1.104-0.48,1.104-1.296
	c0-0.816-0.345-1.296-2.139-1.296c-1.794,0-18.64-1.158-19.538-2.04c-0.9-0.888,0.139-1.908-0.828-2.184
	c-0.966-0.27-9.525-2.316-9.525-2.316l0.006,22.777C113.959,143.807,123.967,146.807,133.357,147.827z"/>
<path fill="#FFFFFF" d="M133.313,47.274c9.388,1.023,12.561,1.158,12.561,0.408s-1.794-2.592-1.794-3.618c0-0.42,0-2.67-0.003-5.166
	c-0.582-0.024-1.191-0.051-1.863-0.084c-7.524-0.336-22.504-3.198-22.504-3.198v-2.589c0,0,14.842,2.589,18.361,3.063
	c1.398,0.189,3.714,0.36,6.006,0.492c0-2.844,0-5.406,0-5.406s-0.003-1.566,0.756-1.566s1.104-0.48,1.104-1.296
	s-0.345-1.296-2.139-1.296s-18.637-1.152-19.534-2.04c-0.9-0.882,0.138-1.908-0.828-2.184c-0.966-0.27-9.525-2.316-9.525-2.316
	l0.006,22.777C113.917,43.253,123.925,46.254,133.313,47.274z"/>
<path fill="#FFFFFF" d="M102.087,106.941l6.04,6.039l-0.006-19.129c0,0-8.052-5.703-11.58-12.25l0.006,21.817l3.192,3.522
	L102.087,106.941L102.087,106.941z"/>
<path fill="#FFFFFF" d="M99.744,131.897h2.349l6.042,6.036l-0.006-19.132c0,0-8.055-5.703-11.58-12.247l0.006,21.814L99.744,131.897
	z"/>
<path fill="#FFFFFF" d="M99.729,81.992h2.35l6.042,6.04L108.115,68.9c0,0-8.055-5.7-11.581-12.247L96.54,78.47L99.729,81.992z"/>
<path fill="#FFFFFF" d="M99.723,57.039l2.349-0.003l6.04,6.042l-0.004-19.132c0,0-8.055-5.7-11.583-12.246l0.009,21.814
	L99.723,57.039z"/>
<path fill="#FFFFFF" d="M96.56,156.456l0.009,21.817l3.19,3.522h2.349l1.248,1.248l4.788-14.335
	C108.144,168.709,100.089,163.003,96.56,156.456z"/>
<path fill="#FFFFFF" d="M144.071,19.114v-5.166c-0.582-0.03-1.191-0.054-1.863-0.084c-7.525-0.336-22.504-3.198-22.504-3.198
	l-0.003-2.592c0,0,5.202,0.906,10.179,1.746c-2.187-0.588-4.233-1.023-6.07-2.514c-1.137-0.921-0.405-2.202,0.649-2.652
	c-0.745-0.21-1.146-0.996-1.077-1.77c-2.031-0.306-3.963-0.84-5.445-2.241c-1.464-0.159-2.844-0.33-4.035-0.567l0.006,18.229
	c0,0,10.012,3,19.399,4.02s12.562,1.158,12.562,0.408C145.869,21.982,144.075,20.134,144.071,19.114z"/>
<path fill="#FFFFFF" d="M99.75,156.846h2.349l6.043,6.042l-0.007-19.135c0,0-8.052-5.7-11.58-12.247l0.006,21.817L99.75,156.846z"/>
<g>
	<path fill="#FFFFFF" d="M185.467,40.849l13.161,49.098h-4.298l-3.886-15.139h-14.867l-4.022,15.139h-4.091l13.093-49.098H185.467z
		 M189.558,71.056l-6.477-24.823h-0.138l-6.478,24.823H189.558z"/>
	<path fill="#FFFFFF" d="M231.156,73.307c0,2.411-0.264,4.684-0.785,6.82c-0.522,2.14-1.341,4.022-2.455,5.66
		c-1.115,1.638-2.546,2.934-4.295,3.889c-1.752,0.954-3.854,1.43-6.309,1.43c-3.272,0-5.854-0.75-7.739-2.251
		c-1.887-1.5-3.308-3.498-4.262-5.998c-0.954-2.499-1.557-5.389-1.807-8.661c-0.25-3.273-0.375-6.66-0.375-10.163
		c0-1.682,0.056-3.454,0.169-5.319c0.114-1.864,0.332-3.694,0.648-5.487c0.318-1.798,0.795-3.512,1.432-5.15
		c0.637-1.638,1.49-3.081,2.557-4.329c1.068-1.252,2.376-2.241,3.922-2.97c1.545-0.724,3.409-1.088,5.591-1.088
		c2.183,0,4.114,0.408,5.797,1.225c1.68,0.817,3.089,1.923,4.228,3.308c1.135,1.39,1.987,3.002,2.557,4.844
		c0.566,1.838,0.852,3.805,0.852,5.896h-4.364c-0.093-1.452-0.308-2.873-0.648-4.262c-0.341-1.386-0.877-2.611-1.603-3.681
		c-0.728-1.07-1.66-1.931-2.797-2.593c-1.137-0.656-2.523-0.99-4.16-0.99c-2.273,0-4.069,0.684-5.387,2.047
		c-1.319,1.363-2.318,3.094-3,5.185c-0.681,2.092-1.114,4.409-1.295,6.953c-0.182,2.548-0.273,5.003-0.273,7.365
		c0,2.686,0.101,5.368,0.306,8.049c0.206,2.682,0.659,5.079,1.365,7.193c0.703,2.113,1.749,3.831,3.136,5.15
		c1.385,1.318,3.261,1.976,5.625,1.976c1.818,0,3.318-0.453,4.502-1.363c1.181-0.91,2.113-2.055,2.794-3.445
		c0.683-1.386,1.161-2.909,1.434-4.569c0.272-1.656,0.409-3.214,0.409-4.671H231.156z"/>
	<path fill="#FFFFFF" d="M266.684,73.307c0,2.411-0.264,4.684-0.785,6.82c-0.522,2.14-1.341,4.022-2.455,5.66
		c-1.115,1.638-2.547,2.934-4.295,3.889c-1.752,0.954-3.854,1.43-6.309,1.43c-3.271,0-5.854-0.75-7.739-2.251
		c-1.885-1.5-3.307-3.498-4.262-5.998c-0.954-2.499-1.557-5.389-1.807-8.661c-0.25-3.273-0.375-6.66-0.375-10.163
		c0-1.682,0.056-3.454,0.17-5.319c0.113-1.864,0.331-3.694,0.648-5.487c0.317-1.798,0.795-3.512,1.432-5.15
		c0.638-1.638,1.49-3.081,2.557-4.329c1.068-1.252,2.375-2.241,3.923-2.97c1.545-0.724,3.41-1.088,5.591-1.088
		c2.183,0,4.114,0.408,5.796,1.225c1.68,0.817,3.091,1.923,4.228,3.308c1.135,1.39,1.988,3.002,2.557,4.844
		c0.566,1.838,0.852,3.805,0.852,5.896h-4.364c-0.093-1.452-0.308-2.873-0.647-4.262c-0.342-1.386-0.877-2.611-1.602-3.681
		c-0.729-1.07-1.66-1.931-2.798-2.593c-1.136-0.656-2.522-0.99-4.16-0.99c-2.273,0-4.069,0.684-5.387,2.047
		s-2.318,3.094-2.999,5.185c-0.682,2.092-1.114,4.409-1.296,6.953c-0.182,2.548-0.273,5.003-0.273,7.365
		c0,2.686,0.102,5.368,0.306,8.049c0.206,2.682,0.659,5.079,1.365,7.193c0.703,2.113,1.749,3.831,3.136,5.15
		c1.385,1.318,3.261,1.976,5.625,1.976c1.818,0,3.319-0.453,4.502-1.363c1.181-0.91,2.113-2.055,2.794-3.445
		c0.683-1.386,1.161-2.909,1.434-4.569c0.271-1.656,0.41-3.214,0.41-4.671H266.684z"/>
	<path fill="#FFFFFF" d="M288.573,91.106c-3.273,0-5.855-0.75-7.739-2.251c-1.887-1.5-3.333-3.463-4.332-5.896
		c-1.001-2.433-1.636-5.194-1.909-8.288c-0.273-3.09-0.408-6.203-0.408-9.341c0-2.863,0.136-5.82,0.408-8.866
		c0.273-3.046,0.908-5.807,1.909-8.284c0.999-2.477,2.444-4.511,4.332-6.105c1.884-1.589,4.466-2.384,7.739-2.384
		c3.364,0,6.012,0.795,7.943,2.384c1.934,1.594,3.377,3.627,4.331,6.105c0.954,2.477,1.556,5.238,1.807,8.284
		s0.375,6.003,0.375,8.866c0,3.095-0.125,6.171-0.375,9.239c-0.251,3.072-0.853,5.833-1.807,8.288s-2.397,4.444-4.331,5.966
		C294.585,90.346,291.937,91.106,288.573,91.106z M288.573,87.354c2.318,0,4.147-0.6,5.488-1.807
		c1.341-1.203,2.364-2.819,3.07-4.839c0.704-2.025,1.159-4.364,1.363-7.024c0.205-2.659,0.308-5.447,0.308-8.355
		c0-2.455-0.093-4.977-0.272-7.57c-0.183-2.592-0.626-4.946-1.33-7.058c-0.706-2.114-1.74-3.854-3.103-5.217
		c-1.366-1.363-3.206-2.047-5.524-2.047c-2.275,0-4.081,0.639-5.422,1.913c-1.341,1.27-2.364,2.953-3.068,5.043
		c-0.706,2.091-1.159,4.444-1.365,7.059c-0.204,2.615-0.307,5.239-0.307,7.876c0,2.726,0.102,5.399,0.307,8.013
		c0.207,2.615,0.659,4.968,1.365,7.059c0.704,2.091,1.727,3.774,3.068,5.043C284.492,86.719,286.298,87.354,288.573,87.354z"/>
	<path fill="#FFFFFF" d="M315.507,86.195h19.095V40.849h4.227v45.347h3.616v14.184h-4.094V89.946H311.28V40.849h4.227V86.195z"/>
	<path fill="#FFFFFF" d="M352.947,82.99h0.133l18.07-42.141h5.257v49.098h-4.232V47.939h-0.138l-18.203,42.008h-5.116V40.849h4.229
		V82.99z"/>
	<path fill="#FFFFFF" d="M399.723,40.849l13.163,49.098h-4.298l-3.884-15.139h-14.869l-4.022,15.139h-4.088l13.088-49.098H399.723z
		 M403.815,71.056l-6.477-24.823H397.2l-6.478,24.823H403.815z"/>
	<path fill="#FFFFFF" d="M422.364,86.195h19.091V40.849h4.227v45.347h3.617v14.184h-4.093V89.946h-27.068V40.849h4.226
		L422.364,86.195L422.364,86.195z"/>
	<path fill="#FFFFFF" d="M459.801,82.99h0.136l18.07-42.141h5.252v49.098h-4.227V47.939h-0.138l-18.207,42.008h-5.115V40.849h4.228
		L459.801,82.99L459.801,82.99z"/>
	<path fill="#FFFFFF" d="M505.901,68.33l-11.387,21.617h-5.049l11.664-21.892c-3.139-0.68-5.527-2.145-7.162-4.395
		c-1.638-2.251-2.455-5.217-2.455-8.902c0-2.499,0.342-4.635,1.021-6.411c0.684-1.771,1.617-3.214,2.798-4.328
		s2.579-1.918,4.196-2.419c1.611-0.502,3.374-0.751,5.283-0.751h11.934v49.098h-4.227V68.33H505.901z M512.516,44.6h-6.481
		c-3.41,0-5.976,0.795-7.703,2.384c-1.727,1.594-2.593,4.116-2.593,7.57c0,1.909,0.262,3.511,0.786,4.808
		c0.52,1.296,1.27,2.331,2.251,3.104c0.977,0.772,2.157,1.318,3.543,1.638c1.389,0.315,2.944,0.475,4.675,0.475h5.522V44.6z"/>
	<path fill="#FFFFFF" d="M169.165,117.006h6.492c0.993,0,1.923,0.129,2.789,0.381c0.865,0.253,1.615,0.657,2.253,1.203
		c0.635,0.546,1.139,1.249,1.507,2.101s0.555,1.864,0.555,3.036c0,1.372-0.286,2.633-0.859,3.778
		c-0.573,1.146-1.533,1.975-2.883,2.482c1.602,0.435,2.754,1.239,3.456,2.407c0.7,1.172,1.05,2.575,1.05,4.2
		c0,1.731-0.269,3.121-0.801,4.164c-0.535,1.043-1.217,1.847-2.045,2.406c-0.827,0.559-1.731,0.923-2.71,1.087
		c-0.981,0.164-1.915,0.249-2.808,0.249h-5.996L169.165,117.006L169.165,117.006z M171.533,129.033h3.399
		c0.713,0,1.394-0.062,2.042-0.191c0.65-0.124,1.229-0.382,1.738-0.763c0.508-0.382,0.917-0.915,1.223-1.603
		c0.304-0.688,0.457-1.576,0.457-2.673c0-1.016-0.166-1.838-0.495-2.464c-0.332-0.621-0.765-1.101-1.298-1.429
		c-0.536-0.333-1.141-0.551-1.816-0.653c-0.675-0.102-1.367-0.151-2.08-0.151h-3.169v9.927H171.533z M171.533,142.401h3.896
		c0.815,0,1.571-0.089,2.27-0.267c0.703-0.177,1.306-0.493,1.814-0.936c0.511-0.444,0.911-1.043,1.203-1.794
		c0.294-0.75,0.44-1.701,0.44-2.846c0-1.145-0.171-2.068-0.516-2.77c-0.344-0.697-0.789-1.247-1.336-1.643
		c-0.548-0.391-1.159-0.661-1.834-0.799c-0.674-0.143-1.356-0.213-2.042-0.213h-3.896v11.268H171.533z"/>
	<path fill="#FFFFFF" d="M187.953,117.006h12.642v2.1h-10.273v9.625h9.165v2.1h-9.165v11.57h10.273v2.1h-12.642V117.006z"/>
	<path fill="#FFFFFF" d="M204.107,123.346c0-0.715,0.126-1.478,0.382-2.291c0.255-0.817,0.661-1.571,1.223-2.273
		c0.559-0.701,1.285-1.279,2.175-1.74c0.889-0.457,1.973-0.684,3.245-0.684c1.094,0,2.069,0.177,2.922,0.533
		c0.854,0.355,1.567,0.861,2.139,1.509c0.573,0.648,1.006,1.429,1.3,2.348c0.291,0.915,0.439,1.923,0.439,3.015
		c0,1.656-0.402,3.019-1.203,4.089c-0.804,1.07-1.764,1.78-2.884,2.136c0.636,0.155,1.248,0.408,1.835,0.764
		c0.583,0.36,1.098,0.835,1.545,1.434c0.446,0.599,0.804,1.305,1.07,2.117c0.266,0.818,0.402,1.758,0.402,2.828
		c0,1.501-0.218,2.762-0.651,3.779c-0.432,1.021-1.006,1.843-1.717,2.464c-0.713,0.626-1.527,1.079-2.445,1.359
		c-0.917,0.279-1.858,0.417-2.826,0.417c-2.42,0-4.302-0.747-5.651-2.233c-1.35-1.487-2.025-3.556-2.025-6.207h2.368
		c0.051,1.226,0.215,2.234,0.495,3.037c0.28,0.804,0.651,1.452,1.107,1.949c0.46,0.497,0.999,0.844,1.624,1.048
		c0.623,0.204,1.317,0.306,2.081,0.306c3.514,0,5.271-1.846,5.271-5.536c0-1.145-0.16-2.131-0.478-2.961
		c-0.32-0.825-0.743-1.518-1.279-2.082c-0.535-0.56-1.165-0.972-1.89-1.239c-0.727-0.267-1.508-0.399-2.349-0.399h-1.643v-2.1h1.796
		c3.385,0,5.079-1.723,5.079-5.159c0-0.839-0.128-1.576-0.382-2.215c-0.255-0.635-0.592-1.168-1.012-1.603
		c-0.42-0.43-0.903-0.755-1.451-0.972c-0.546-0.218-1.125-0.324-1.736-0.324c-0.817,0-1.502,0.146-2.062,0.439
		c-0.562,0.293-1.018,0.666-1.376,1.123c-0.355,0.462-0.631,0.981-0.821,1.567c-0.191,0.586-0.311,1.172-0.362,1.758h-2.255V123.346
		z"/>
	<path fill="#FFFFFF" d="M240.195,117.006v25.395h1.949v7.942h-2.294v-5.842h-15.58v5.842h-2.291v-7.942h1.719
		c0.561-0.995,1.039-1.971,1.434-2.939c0.392-0.968,0.716-2.051,0.971-3.25c0.256-1.194,0.433-2.557,0.535-4.083
		c0.102-1.528,0.153-3.348,0.153-5.461v-9.661L240.195,117.006L240.195,117.006z M229.16,119.106v8.209
		c0,3.156-0.217,6.024-0.651,8.594c-0.433,2.571-1.183,4.733-2.253,6.491h11.572v-23.295h-8.668V119.106z"/>
	<path fill="#FFFFFF" d="M246.038,117.006h12.641v2.1h-10.273v9.625h9.166v2.1h-9.166v11.57h10.273v2.1h-12.641L246.038,117.006
		L246.038,117.006z"/>
	<path fill="#FFFFFF" d="M263.605,117.006l5.461,11.037l5.612-11.037h2.635l-6.835,13.288l7.141,14.207h-2.597l-5.956-11.952
		l-5.92,11.952h-2.56l7.104-14.207l-6.759-13.288C260.931,117.006,263.605,117.006,263.605,117.006z"/>
	<path fill="#FFFFFF" d="M288.425,145.15c-1.834,0-3.279-0.417-4.335-1.261c-1.057-0.839-1.865-1.94-2.425-3.303
		c-0.559-1.359-0.917-2.908-1.07-4.639c-0.151-1.732-0.228-3.476-0.228-5.23c0-1.603,0.078-3.259,0.228-4.964
		c0.153-1.709,0.511-3.254,1.07-4.64c0.56-1.39,1.367-2.531,2.425-3.419c1.056-0.892,2.501-1.336,4.335-1.336
		c1.885,0,3.367,0.444,4.449,1.336c1.083,0.888,1.891,2.029,2.427,3.419c0.532,1.385,0.87,2.931,1.012,4.64
		c0.138,1.705,0.208,3.36,0.208,4.964c0,1.732-0.07,3.454-0.208,5.172c-0.142,1.719-0.48,3.268-1.012,4.64
		c-0.536,1.376-1.344,2.49-2.427,3.343C291.792,144.723,290.31,145.15,288.425,145.15z M288.425,143.049
		c1.298,0,2.322-0.337,3.074-1.012c0.75-0.674,1.323-1.575,1.718-2.712c0.395-1.132,0.651-2.442,0.764-3.929
		c0.116-1.492,0.173-3.05,0.173-4.679c0-1.376-0.052-2.788-0.153-4.24c-0.102-1.452-0.351-2.77-0.746-3.951
		c-0.395-1.185-0.972-2.158-1.736-2.921c-0.765-0.764-1.796-1.145-3.094-1.145c-1.274,0-2.284,0.355-3.037,1.07
		c-0.75,0.71-1.323,1.652-1.718,2.824s-0.649,2.491-0.764,3.951c-0.113,1.465-0.171,2.934-0.171,4.413
		c0,1.527,0.058,3.023,0.171,4.488c0.115,1.46,0.369,2.779,0.764,3.951c0.395,1.172,0.968,2.113,1.718,2.824
		C286.141,142.694,287.151,143.049,288.425,143.049z"/>
	<path fill="#FFFFFF" d="M317.18,117.006v25.395h1.95v7.942h-2.294v-5.842h-15.581v5.842h-2.291v-7.942h1.719
		c0.561-0.995,1.038-1.971,1.433-2.939c0.393-0.968,0.717-2.051,0.973-3.25c0.255-1.194,0.433-2.557,0.535-4.083
		c0.102-1.528,0.153-3.348,0.153-5.461v-9.661L317.18,117.006L317.18,117.006z M306.145,119.106v8.209
		c0,3.156-0.217,6.024-0.649,8.594c-0.434,2.571-1.183,4.733-2.254,6.491h11.572v-23.295h-8.669V119.106z"/>
	<path fill="#FFFFFF" d="M325.392,128.731h10.615v-11.725h2.369v27.495h-2.369v-13.67h-10.615v13.67h-2.369v-27.495h2.369V128.731z"
		/>
	<path fill="#FFFFFF" d="M351.056,145.15c-1.836,0-3.281-0.417-4.339-1.261c-1.056-0.839-1.864-1.94-2.424-3.303
		c-0.559-1.359-0.916-2.908-1.069-4.639c-0.151-1.732-0.229-3.476-0.229-5.23c0-1.603,0.078-3.259,0.229-4.964
		c0.154-1.709,0.511-3.254,1.069-4.64c0.56-1.39,1.369-2.531,2.424-3.419c1.057-0.892,2.502-1.336,4.339-1.336
		c1.882,0,3.364,0.444,4.449,1.336c1.083,0.888,1.891,2.029,2.423,3.419c0.532,1.385,0.87,2.931,1.012,4.64
		c0.138,1.705,0.208,3.36,0.208,4.964c0,1.732-0.07,3.454-0.208,5.172c-0.142,1.719-0.48,3.268-1.012,4.64
		c-0.532,1.376-1.341,2.49-2.423,3.343C354.42,144.723,352.938,145.15,351.056,145.15z M351.056,143.049
		c1.295,0,2.317-0.337,3.072-1.012c0.75-0.674,1.322-1.575,1.719-2.712c0.394-1.132,0.652-2.442,0.763-3.929
		c0.116-1.492,0.173-3.05,0.173-4.679c0-1.376-0.053-2.788-0.151-4.24c-0.106-1.452-0.355-2.77-0.745-3.951
		c-0.4-1.185-0.978-2.158-1.74-2.921c-0.764-0.764-1.794-1.145-3.09-1.145c-1.277,0-2.287,0.355-3.04,1.07
		c-0.75,0.71-1.323,1.652-1.717,2.824c-0.396,1.172-0.649,2.491-0.764,3.951c-0.113,1.465-0.171,2.934-0.171,4.413
		c0,1.527,0.058,3.023,0.171,4.488c0.116,1.46,0.369,2.779,0.764,3.951c0.394,1.172,0.967,2.113,1.717,2.824
		C348.769,142.694,349.779,143.049,351.056,143.049z"/>
	<path fill="#FFFFFF" d="M366.137,140.607h0.075l10.122-23.601h2.939v27.495h-2.371v-23.526h-0.07l-10.198,23.526h-2.864v-27.495
		h2.367V140.607z M367.97,110.4c0.15,1.043,0.56,1.82,1.221,2.327c0.662,0.51,1.439,0.768,2.331,0.768
		c0.888,0,1.66-0.258,2.308-0.768c0.648-0.507,1.075-1.283,1.279-2.327h1.261c-0.152,1.603-0.684,2.806-1.603,3.609
		c-0.919,0.799-2.064,1.203-3.436,1.203c-1.35,0-2.438-0.426-3.263-1.283c-0.831-0.852-1.323-2.029-1.475-3.529
		C366.593,110.4,367.97,110.4,367.97,110.4z"/>
	<path fill="#FFFFFF" d="M399.243,144.501h-2.367v-25.395h-6.223v-2.1h14.815v2.1h-6.225V144.501z"/>
	<path fill="#FFFFFF" d="M408.713,117.006h12.639v2.1h-10.273v9.625h9.168v2.1h-9.168v11.57h10.273v2.1h-12.639V117.006z"/>
	<path fill="#FFFFFF" d="M426.28,117.006l5.462,11.037l5.612-11.037h2.637l-6.837,13.288l7.139,14.207H437.7l-5.958-11.952
		l-5.923,11.952h-2.557l7.104-14.207l-6.757-13.288C423.609,117.006,426.28,117.006,426.28,117.006z"/>
	<path fill="#FFFFFF" d="M445.833,128.731h10.611v-11.725h2.37v27.495h-2.37v-13.67h-10.611v13.67h-2.37v-27.495h2.37V128.731z"/>
	<path fill="#FFFFFF" d="M466.22,140.607h0.08l10.118-23.601h2.939v27.495h-2.361v-23.526h-0.08l-10.193,23.526h-2.868v-27.495
		h2.366v23.601H466.22z"/>
	<path fill="#FFFFFF" d="M486.766,130.751l10.007-13.745h2.748l-8.133,11.113l8.555,16.382h-2.597l-7.485-14.434l-3.095,4.01v10.424
		H484.4v-27.495h2.366V130.751z"/>
	<path fill="#FFFFFF" d="M505.133,140.607h0.076l10.123-23.601h2.939v27.495h-2.367v-23.526h-0.08l-10.193,23.526h-2.864v-27.495
		h2.366L505.133,140.607L505.133,140.607z"/>
</g>
</svg>
